<svg xmlns="http://www.w3.org/2000/svg" viewBox="0 0 375.34 486.21">
<defs>
<linearGradient id="grad3" x1="0%" y1="0%" x2="100%" y2="0%">
      <stop offset="0%" style="stop-color:rgb(255,255,0);stop-opacity:1" />
      <stop offset="100%" style="stop-color:rgb(255,0,0);stop-opacity:1" />
    </linearGradient>

<style>.cls-1{fill:#fff;}</style></defs><title>Asset 2</title><g id="Layer_2" data-name="Layer 2"><g id="bg"><circle class="cls-1" cx="337.94" cy="290.58" r="5.59"/><path class="cls-1" d="M348.33,275a10.23,10.23,0,0,1-20.46,0,5.59,5.59,0,1,0-5.59,5.59,10.23,10.23,0,0,1,10.23,10.23h0a5.59,5.59,0,0,0,5.59,5.59h0a5.6,5.6,0,0,0,5.6-5.59h0a10.23,10.23,0,0,1,10.23-10.23,5.6,5.6,0,1,0-5.6-5.59Z"/><circle class="cls-1" cx="369.64" cy="417.17" r="5.59"/><path class="cls-1" d="M369.75,364.21a10.23,10.23,0,0,1,0-20.46,5.6,5.6,0,1,0-5.59-5.59,10.23,10.23,0,0,1-10.23,10.23h0a5.6,5.6,0,0,0-5.6,5.59h0a5.6,5.6,0,0,0,5.6,5.6h0a10.23,10.23,0,0,1,10.23,10.22,5.59,5.59,0,1,0,5.59-5.59Z"/><circle class="cls-1" cx="369.59" cy="274.76" r="5.59"/><path class="cls-1" d="M369.7,296.23a10.23,10.23,0,1,0,0,20.46,5.6,5.6,0,1,1-5.6,5.59,10.23,10.23,0,0,0-10.23-10.23h0a5.59,5.59,0,0,1-5.59-5.59h0a5.6,5.6,0,0,1,5.59-5.6h0a10.23,10.23,0,0,0,10.23-10.22,5.6,5.6,0,1,1,5.6,5.59Z"/><path class="cls-1" d="M353.82,312.16a10.23,10.23,0,1,0,0,20.46,5.6,5.6,0,1,1-5.59,5.59A10.23,10.23,0,0,0,338,328h0a5.6,5.6,0,0,1-5.6-5.59h0a5.6,5.6,0,0,1,5.6-5.6h0a10.23,10.23,0,0,0,10.23-10.22,5.59,5.59,0,1,1,5.59,5.59Z"/><circle class="cls-1" cx="353.76" cy="322.32" r="5.59"/><circle class="cls-1" cx="369.64" cy="353.85" r="5.59"/><path class="cls-1" d="M353.87,248.65a10.23,10.23,0,0,0,0,20.46,5.6,5.6,0,1,1-5.59,5.6,10.23,10.23,0,0,0-10.23-10.23h0a5.6,5.6,0,0,1-5.59-5.6h0a5.59,5.59,0,0,1,5.59-5.59h0a10.23,10.23,0,0,0,10.23-10.23,5.6,5.6,0,1,1,5.59,5.59Z"/><path class="cls-1" d="M338,359.52A10.23,10.23,0,0,0,338,380a5.6,5.6,0,1,1-5.6,5.59,10.23,10.23,0,0,0-10.22-10.23h0a5.59,5.59,0,0,1-5.59-5.59h0a5.59,5.59,0,0,1,5.59-5.59h0a10.23,10.23,0,0,0,10.22-10.23,5.6,5.6,0,1,1,5.6,5.59Z"/><path class="cls-1" d="M353.82,343.59a10.23,10.23,0,0,0,0,20.46,5.6,5.6,0,1,1-5.59,5.59A10.23,10.23,0,0,0,338,359.42h0a5.6,5.6,0,0,1-5.6-5.6h0a5.6,5.6,0,0,1,5.6-5.59h0A10.23,10.23,0,0,0,348.23,338a5.59,5.59,0,1,1,5.59,5.59Z"/><path class="cls-1" d="M327.72,417.27a10.23,10.23,0,1,0,20.45,0,5.6,5.6,0,1,1,5.6,5.6,10.23,10.23,0,0,0-10.23,10.22h0a5.6,5.6,0,0,1-5.6,5.59h0a5.59,5.59,0,0,1-5.59-5.59h0a10.23,10.23,0,0,0-10.23-10.22,5.6,5.6,0,1,1,5.6-5.6Z"/><path class="cls-1" d="M348.17,480.46a10.23,10.23,0,1,0-20.45,0,5.6,5.6,0,1,1-5.6-5.6,10.22,10.22,0,0,0,10.23-10.22h0a5.6,5.6,0,0,1,5.59-5.6h0a5.6,5.6,0,0,1,5.6,5.6h0a10.23,10.23,0,0,0,10.23,10.22,5.6,5.6,0,1,1-5.6,5.6Z"/><path class="cls-1" d="M343.59,385.52a10.23,10.23,0,0,0,20.46,0,5.6,5.6,0,1,1,5.59,5.59,10.24,10.24,0,0,0-10.23,10.23h0a5.6,5.6,0,0,1-5.59,5.6h0a5.6,5.6,0,0,1-5.59-5.6h0A10.23,10.23,0,0,0,338,391.11a5.59,5.59,0,1,1,5.59-5.59Z"/><circle class="cls-1" cx="338" cy="338" r="5.59"/><circle class="cls-1" cx="353.71" cy="290.64" r="5.59"/><circle class="cls-1" cx="337.94" cy="417.11" r="5.59"/><circle class="cls-1" cx="369.59" cy="448.76" r="5.59"/><path class="cls-1" d="M332.43,354A10.23,10.23,0,0,0,312,354a5.6,5.6,0,1,1-5.59-5.59,10.23,10.23,0,0,0,10.23-10.23h0a5.59,5.59,0,0,1,5.59-5.59h0a5.59,5.59,0,0,1,5.59,5.59h0A10.24,10.24,0,0,0,338,348.36a5.6,5.6,0,1,1-5.59,5.59Z"/><path class="cls-1" d="M296.15,338.13a10.23,10.23,0,0,0,20.46,0,5.6,5.6,0,1,1,5.59,5.6A10.22,10.22,0,0,0,312,354h0a5.6,5.6,0,0,1-5.59,5.6h0a5.6,5.6,0,0,1-5.6-5.6h0a10.23,10.23,0,0,0-10.22-10.22,5.6,5.6,0,1,1,5.59-5.6Z"/><path class="cls-1" d="M306.38,427.47a10.23,10.23,0,1,0,0-20.45,5.6,5.6,0,1,1,5.59-5.6,10.23,10.23,0,0,0,10.23,10.23h0a5.6,5.6,0,0,1,5.6,5.6h0a5.6,5.6,0,0,1-5.6,5.59h0A10.23,10.23,0,0,0,312,433.07a5.6,5.6,0,1,1-5.59-5.6Z"/><circle class="cls-1" cx="306.3" cy="480.62" r="5.59"/><circle class="cls-1" cx="337.94" cy="53.12" r="5.59"/><path class="cls-1" d="M348.33,37.56a10.23,10.23,0,1,1-20.46,0,5.59,5.59,0,1,0-5.59,5.59,10.23,10.23,0,0,1,10.23,10.23h0A5.6,5.6,0,0,0,338.1,59h0a5.6,5.6,0,0,0,5.6-5.6h0a10.23,10.23,0,0,1,10.23-10.23,5.59,5.59,0,1,0-5.6-5.59Z"/><circle class="cls-1" cx="369.64" cy="179.7" r="5.59"/><path class="cls-1" d="M369.75,126.74a10.23,10.23,0,1,1,0-20.45,5.6,5.6,0,1,0-5.59-5.6,10.23,10.23,0,0,1-10.23,10.23h0a5.6,5.6,0,0,0-5.6,5.59h0a5.6,5.6,0,0,0,5.6,5.6h0a10.23,10.23,0,0,1,10.23,10.23,5.59,5.59,0,1,0,5.59-5.6Z"/><circle class="cls-1" cx="369.59" cy="37.29" r="5.59"/><path class="cls-1" d="M369.7,58.76a10.23,10.23,0,1,0,0,20.46,5.6,5.6,0,1,1-5.6,5.6,10.23,10.23,0,0,0-10.23-10.23h0a5.6,5.6,0,0,1-5.59-5.6h0a5.59,5.59,0,0,1,5.59-5.59h0A10.23,10.23,0,0,0,364.1,53.17a5.6,5.6,0,1,1,5.6,5.59Z"/><path class="cls-1" d="M353.82,74.69a10.23,10.23,0,0,0,0,20.46,5.6,5.6,0,1,1-5.59,5.6A10.23,10.23,0,0,0,338,90.52h0a5.6,5.6,0,0,1-5.6-5.6h0a5.6,5.6,0,0,1,5.6-5.59h0A10.23,10.23,0,0,0,348.23,69.1a5.59,5.59,0,1,1,5.59,5.59Z"/><circle class="cls-1" cx="353.76" cy="84.85" r="5.59"/><circle class="cls-1" cx="369.64" cy="116.39" r="5.59"/><path class="cls-1" d="M353.87,11.19a10.23,10.23,0,0,0,0,20.46,5.59,5.59,0,1,1-5.59,5.59A10.23,10.23,0,0,0,338.05,27h0a5.59,5.59,0,0,1-5.59-5.59h0a5.6,5.6,0,0,1,5.59-5.6h0A10.23,10.23,0,0,0,348.28,5.59a5.6,5.6,0,1,1,5.59,5.6Z"/><path class="cls-1" d="M353.82,106.13a10.23,10.23,0,1,0,0,20.45,5.6,5.6,0,1,1-5.59,5.6A10.23,10.23,0,0,0,338,122h0a5.6,5.6,0,0,1-5.6-5.59h0a5.6,5.6,0,0,1,5.6-5.6h0a10.23,10.23,0,0,0,10.23-10.23,5.59,5.59,0,1,1,5.59,5.6Z"/><path class="cls-1" d="M348.17,243a10.23,10.23,0,1,0-20.45,0,5.6,5.6,0,1,1-5.6-5.59,10.23,10.23,0,0,0,10.23-10.23h0a5.59,5.59,0,0,1,5.59-5.59h0a5.6,5.6,0,0,1,5.6,5.59h0a10.23,10.23,0,0,0,10.23,10.23,5.6,5.6,0,1,1-5.6,5.59Z"/><path class="cls-1" d="M343.59,148.05a10.23,10.23,0,0,0,20.46,0,5.6,5.6,0,1,1,5.59,5.6,10.24,10.24,0,0,0-10.23,10.23h0a5.59,5.59,0,0,1-5.59,5.59h0a5.59,5.59,0,0,1-5.59-5.59h0A10.23,10.23,0,0,0,338,153.65a5.6,5.6,0,1,1,5.59-5.6Z"/><path class="cls-1" d="M369.64,137.83a10.23,10.23,0,1,0,0,20.45,5.6,5.6,0,1,1-5.59,5.6,10.23,10.23,0,0,0-10.23-10.23h0a5.6,5.6,0,0,1-5.59-5.6h0a5.59,5.59,0,0,1,5.59-5.59h0a10.23,10.23,0,0,0,10.23-10.23,5.6,5.6,0,1,1,5.59,5.6Z"/><path class="cls-1" d="M353.82,174.11a10.23,10.23,0,1,0,0-20.46,5.6,5.6,0,1,1,5.59-5.6,10.23,10.23,0,0,0,10.23,10.23h0a5.6,5.6,0,0,1,5.6,5.6h0a5.6,5.6,0,0,1-5.6,5.59h0a10.22,10.22,0,0,0-10.22,10.23,5.6,5.6,0,1,1-5.6-5.59Z"/><circle class="cls-1" cx="338" cy="100.53" r="5.59"/><circle class="cls-1" cx="353.71" cy="53.17" r="5.59"/><circle class="cls-1" cx="337.94" cy="179.65" r="5.59"/><circle class="cls-1" cx="369.59" cy="211.29" r="5.59"/><path class="cls-1" d="M369.56,232.58a10.23,10.23,0,0,0,0,20.46,5.59,5.59,0,1,1-5.59,5.59,10.23,10.23,0,0,0-10.23-10.23h0a5.59,5.59,0,0,1-5.59-5.59h0a5.6,5.6,0,0,1,5.59-5.6h0A10.23,10.23,0,0,0,364,227a5.6,5.6,0,1,1,5.59,5.6Z"/><circle class="cls-1" cx="306.3" cy="243.15" r="5.59"/><path class="cls-1" d="M322.42,364.21a10.23,10.23,0,0,1,0-20.46,5.6,5.6,0,1,0-5.59-5.59,10.23,10.23,0,0,1-10.23,10.23h0A5.59,5.59,0,0,0,301,354h0a5.6,5.6,0,0,0,5.59,5.6h0a10.23,10.23,0,0,1,10.23,10.22,5.6,5.6,0,1,0,5.59-5.59Z"/><circle class="cls-1" cx="322.26" cy="274.76" r="5.59"/><path class="cls-1" d="M338.09,300.81a10.23,10.23,0,1,1,0-20.46,5.59,5.59,0,1,0-5.6-5.59A10.23,10.23,0,0,1,322.27,285h0a5.59,5.59,0,0,0-5.59,5.59h0a5.6,5.6,0,0,0,5.59,5.6h0a10.23,10.23,0,0,1,10.22,10.23,5.6,5.6,0,1,0,5.6-5.6Z"/><circle class="cls-1" cx="338.19" cy="290.64" r="5.59"/><path class="cls-1" d="M322.16,312.16a10.23,10.23,0,0,1,0,20.46,5.6,5.6,0,1,0,5.59,5.59A10.23,10.23,0,0,1,338,328h0a5.6,5.6,0,0,0,5.6-5.59h0a5.6,5.6,0,0,0-5.6-5.6h0a10.23,10.23,0,0,1-10.23-10.22,5.6,5.6,0,1,0-5.59,5.59Z"/><path class="cls-1" d="M322.37,296.23a10.23,10.23,0,1,0,0,20.46,5.6,5.6,0,1,1-5.59,5.59,10.23,10.23,0,0,0-10.23-10.23h0a5.6,5.6,0,0,1-5.6-5.59h0a5.6,5.6,0,0,1,5.6-5.6h0a10.23,10.23,0,0,0,10.23-10.22,5.6,5.6,0,1,1,5.59,5.59Z"/><path class="cls-1" d="M306.49,312.16a10.23,10.23,0,0,0,0,20.46,5.6,5.6,0,1,1-5.6,5.59A10.23,10.23,0,0,0,290.67,328h0a5.59,5.59,0,0,1-5.59-5.59h0a5.6,5.6,0,0,1,5.59-5.6h0a10.23,10.23,0,0,0,10.23-10.22,5.6,5.6,0,1,1,5.59,5.59Z"/><path class="cls-1" d="M327.91,306.46a10.23,10.23,0,0,0,20.46,0,5.6,5.6,0,1,1,5.59,5.59,10.23,10.23,0,0,0-10.22,10.23h0a5.6,5.6,0,0,1-5.6,5.6h0a5.6,5.6,0,0,1-5.59-5.6h0a10.23,10.23,0,0,0-10.23-10.23,5.6,5.6,0,1,1,5.59-5.59Z"/><circle class="cls-1" cx="306.44" cy="322.32" r="5.59"/><path class="cls-1" d="M322.05,364.16a10.23,10.23,0,0,0,0-20.46,5.6,5.6,0,1,1,5.6-5.6,10.23,10.23,0,0,0,10.22,10.23h0a5.6,5.6,0,0,1,5.59,5.6h0a5.59,5.59,0,0,1-5.59,5.59h0a10.23,10.23,0,0,0-10.22,10.23,5.6,5.6,0,1,1-5.6-5.59Z"/><path class="cls-1" d="M328,401.45a10.23,10.23,0,1,0,20.45,0A5.6,5.6,0,1,1,354,407a10.23,10.23,0,0,0-10.23,10.23h0a5.6,5.6,0,0,1-5.6,5.6h0a5.6,5.6,0,0,1-5.59-5.6h0A10.23,10.23,0,0,0,322.37,407a5.59,5.59,0,1,1,5.6-5.59Z"/><circle class="cls-1" cx="338.19" cy="385.73" r="5.59"/><path class="cls-1" d="M312,417.22a10.23,10.23,0,1,0,20.45,0,5.6,5.6,0,1,1,5.6,5.59A10.23,10.23,0,0,0,327.86,433h0a5.6,5.6,0,0,1-5.6,5.6h0a5.6,5.6,0,0,1-5.59-5.6h0a10.23,10.23,0,0,0-10.23-10.23,5.59,5.59,0,1,1,5.6-5.59Z"/><path class="cls-1" d="M300.85,480.46a10.23,10.23,0,0,0-20.46,0,5.6,5.6,0,1,1-5.59-5.6A10.22,10.22,0,0,0,285,464.64h0a5.6,5.6,0,0,1,5.6-5.6h0a5.6,5.6,0,0,1,5.59,5.6h0a10.23,10.23,0,0,0,10.23,10.22,5.6,5.6,0,1,1-5.59,5.6Z"/><path class="cls-1" d="M322.32,375.29a10.23,10.23,0,0,0,0,20.46,5.6,5.6,0,1,1-5.6,5.59,10.22,10.22,0,0,0-10.22-10.22h0a5.6,5.6,0,0,1-5.59-5.6h0a5.59,5.59,0,0,1,5.59-5.59h0a10.23,10.23,0,0,0,10.22-10.23,5.6,5.6,0,1,1,5.6,5.59Z"/><path class="cls-1" d="M306.49,411.57a10.23,10.23,0,1,0,0-20.46,5.59,5.59,0,1,1,5.6-5.59,10.23,10.23,0,0,0,10.23,10.23h0a5.59,5.59,0,0,1,5.59,5.59h0a5.6,5.6,0,0,1-5.59,5.6h0a10.23,10.23,0,0,0-10.23,10.23,5.6,5.6,0,1,1-5.6-5.6Z"/><circle class="cls-1" cx="338.09" cy="432.88" r="5.59"/><path class="cls-1" d="M348.42,480.56a10.23,10.23,0,0,0-20.45,0,5.6,5.6,0,1,1-5.6-5.59,10.23,10.23,0,0,0,10.23-10.23h0a5.59,5.59,0,0,1,5.59-5.59h0a5.6,5.6,0,0,1,5.6,5.59h0A10.23,10.23,0,0,0,354,475a5.6,5.6,0,1,1-5.6,5.59Z"/><circle class="cls-1" cx="290.67" cy="338" r="5.59"/><path class="cls-1" d="M322,459.09a10.23,10.23,0,1,0,0-20.45,5.6,5.6,0,1,1,5.59-5.6,10.23,10.23,0,0,0,10.23,10.23h0a5.6,5.6,0,0,1,5.6,5.6h0a5.6,5.6,0,0,1-5.6,5.59h0a10.23,10.23,0,0,0-10.23,10.23,5.6,5.6,0,1,1-5.59-5.6Z"/><circle class="cls-1" cx="306.39" cy="290.64" r="5.59"/><circle class="cls-1" cx="290.62" cy="417.11" r="5.59"/><circle class="cls-1" cx="322.26" cy="448.76" r="5.59"/><path class="cls-1" d="M259,359.31a10.23,10.23,0,0,0,0,20.46,5.6,5.6,0,1,1-5.59,5.59,10.23,10.23,0,0,0-10.23-10.22h0a5.6,5.6,0,0,1-5.6-5.6h0a5.6,5.6,0,0,1,5.6-5.59h0a10.23,10.23,0,0,0,10.23-10.23,5.59,5.59,0,1,1,5.59,5.59Z"/><circle class="cls-1" cx="338.09" cy="480.46" r="5.59"/><circle class="cls-1" cx="258.97" cy="480.62" r="5.59"/><path class="cls-1" d="M338.14,137.93a10.23,10.23,0,1,1,0,20.46,5.6,5.6,0,1,0,5.6,5.59A10.22,10.22,0,0,1,354,153.76h0a5.6,5.6,0,0,0,5.6-5.6h0a5.6,5.6,0,0,0-5.6-5.59h0a10.22,10.22,0,0,1-10.22-10.23,5.6,5.6,0,1,0-5.6,5.59Z"/><circle class="cls-1" cx="338.19" cy="53.17" r="5.59"/><path class="cls-1" d="M328,164a10.23,10.23,0,1,0,20.45,0,5.6,5.6,0,1,1,5.6,5.6,10.23,10.23,0,0,0-10.23,10.23h0a5.6,5.6,0,0,1-5.6,5.59h0a5.59,5.59,0,0,1-5.59-5.59h0a10.23,10.23,0,0,0-10.23-10.23A5.6,5.6,0,1,1,328,164Z"/><path class="cls-1" d="M312,179.75a10.23,10.23,0,1,0,20.45,0,5.6,5.6,0,1,1,5.6,5.6,10.23,10.23,0,0,0-10.23,10.23h0a5.6,5.6,0,0,1-5.6,5.59h0a5.59,5.59,0,0,1-5.59-5.59h0a10.23,10.23,0,0,0-10.23-10.23,5.6,5.6,0,1,1,5.6-5.6Z"/><circle class="cls-1" cx="338.09" cy="195.42" r="5.59"/><path class="cls-1" d="M348.42,243.1a10.23,10.23,0,1,0-20.45,0,5.6,5.6,0,1,1-5.6-5.6,10.22,10.22,0,0,0,10.23-10.22h0a5.6,5.6,0,0,1,5.59-5.6h0a5.6,5.6,0,0,1,5.6,5.6h0A10.23,10.23,0,0,0,354,237.5a5.6,5.6,0,1,1-5.6,5.6Z"/><path class="cls-1" d="M322,221.63a10.23,10.23,0,1,0,0-20.46,5.6,5.6,0,1,1,5.59-5.59,10.23,10.23,0,0,0,10.23,10.23h0a5.6,5.6,0,0,1,5.6,5.59h0a5.6,5.6,0,0,1-5.6,5.59h0a10.23,10.23,0,0,0-10.23,10.23,5.6,5.6,0,1,1-5.59-5.59Z"/><circle class="cls-1" cx="322.26" cy="211.29" r="5.59"/><path class="cls-1" d="M322.24,232.58a10.23,10.23,0,0,0,0,20.46,5.59,5.59,0,1,1-5.6,5.59,10.22,10.22,0,0,0-10.22-10.23h0a5.6,5.6,0,0,1-5.6-5.59h0a5.6,5.6,0,0,1,5.6-5.6h0A10.23,10.23,0,0,0,316.64,227a5.6,5.6,0,1,1,5.6,5.6Z"/><circle class="cls-1" cx="338.09" cy="242.99" r="5.59"/><circle class="cls-1" cx="243.16" cy="401.25" r="5.59"/><path class="cls-1" d="M211.52,343.61a10.23,10.23,0,1,0,0,20.45,5.6,5.6,0,1,1-5.6,5.6,10.23,10.23,0,0,0-10.23-10.23h0a5.59,5.59,0,0,1-5.59-5.59h0a5.6,5.6,0,0,1,5.59-5.6h0A10.23,10.23,0,0,0,205.92,338a5.6,5.6,0,1,1,5.6,5.6Z"/><path class="cls-1" d="M248.81,385.53a10.23,10.23,0,1,0,20.46,0,5.6,5.6,0,1,1,5.59,5.6,10.23,10.23,0,0,0-10.23,10.23h0A5.59,5.59,0,0,1,259,407h0a5.6,5.6,0,0,1-5.6-5.59h0a10.23,10.23,0,0,0-10.22-10.23,5.6,5.6,0,1,1,5.59-5.6Z"/><circle class="cls-1" cx="259.04" cy="369.82" r="5.59"/><path class="cls-1" d="M201.23,401.36a10.23,10.23,0,1,0,20.46,0,5.6,5.6,0,1,1,5.6,5.59,10.23,10.23,0,0,0-10.23,10.23h0a5.6,5.6,0,0,1-5.6,5.59h0a5.59,5.59,0,0,1-5.59-5.59h0A10.23,10.23,0,0,0,195.64,407a5.6,5.6,0,1,1,5.59-5.59Z"/><path class="cls-1" d="M232.88,401.3a10.23,10.23,0,1,0,20.46,0,5.6,5.6,0,1,1,5.59,5.6,10.23,10.23,0,0,0-10.23,10.23h0a5.59,5.59,0,0,1-5.59,5.59h0a5.59,5.59,0,0,1-5.59-5.59h0a10.24,10.24,0,0,0-10.23-10.23,5.6,5.6,0,1,1,5.59-5.6Z"/><path class="cls-1" d="M221.69,464.54a10.23,10.23,0,0,0-20.46,0,5.59,5.59,0,1,1-5.59-5.59,10.23,10.23,0,0,0,10.23-10.23h0a5.59,5.59,0,0,1,5.59-5.59h0a5.6,5.6,0,0,1,5.6,5.59h0A10.23,10.23,0,0,0,227.29,459a5.6,5.6,0,1,1-5.6,5.59Z"/><path class="cls-1" d="M217.11,369.61a10.23,10.23,0,0,0,20.46,0,5.6,5.6,0,1,1,5.59,5.59,10.23,10.23,0,0,0-10.23,10.23h0a5.59,5.59,0,0,1-5.59,5.59h0a5.59,5.59,0,0,1-5.59-5.59h0a10.24,10.24,0,0,0-10.23-10.23,5.6,5.6,0,1,1,5.59-5.59Z"/><circle class="cls-1" cx="258.93" cy="416.97" r="5.59"/><circle class="cls-1" cx="211.46" cy="401.2" r="5.59"/><circle class="cls-1" cx="274.94" cy="448.76" r="5.59"/><path class="cls-1" d="M243.08,454.13a10.23,10.23,0,0,0,0,20.46,5.6,5.6,0,1,1-5.59,5.59A10.23,10.23,0,0,0,227.26,470h0a5.59,5.59,0,0,1-5.59-5.59h0a5.6,5.6,0,0,1,5.59-5.6h0a10.23,10.23,0,0,0,10.23-10.22,5.6,5.6,0,1,1,5.59,5.59Z"/><circle class="cls-1" cx="258.93" cy="464.54" r="5.59"/><path class="cls-1" d="M169.59,464.6a10.23,10.23,0,0,0,20.46,0,5.59,5.59,0,1,1,5.59,5.59,10.23,10.23,0,0,0-10.23,10.23h0a5.59,5.59,0,0,1-5.59,5.59h0a5.6,5.6,0,0,1-5.6-5.59h0A10.23,10.23,0,0,0,164,470.19a5.6,5.6,0,1,1,5.6-5.59Z"/><circle class="cls-1" cx="179.82" cy="464.7" r="5.59"/><path class="cls-1" d="M201.48,385.53a10.23,10.23,0,1,0,20.46,0,5.6,5.6,0,1,1,5.6,5.6,10.23,10.23,0,0,0-10.23,10.23h0a5.6,5.6,0,0,1-5.6,5.59h0a5.59,5.59,0,0,1-5.59-5.59h0a10.23,10.23,0,0,0-10.23-10.23,5.6,5.6,0,1,1,5.59-5.6Z"/><circle class="cls-1" cx="211.71" cy="369.82" r="5.59"/><path class="cls-1" d="M174.37,464.54a10.23,10.23,0,0,0-20.46,0,5.6,5.6,0,1,1-5.6-5.59,10.23,10.23,0,0,0,10.23-10.23h0a5.6,5.6,0,0,1,5.6-5.59h0a5.59,5.59,0,0,1,5.59,5.59h0A10.23,10.23,0,0,0,180,459a5.6,5.6,0,1,1-5.59,5.59Z"/><path class="cls-1" d="M195.84,359.38a10.23,10.23,0,1,0,0,20.45,5.6,5.6,0,1,1-5.6,5.6A10.23,10.23,0,0,0,180,375.2h0a5.59,5.59,0,0,1-5.59-5.59h0A5.6,5.6,0,0,1,180,364h0a10.23,10.23,0,0,0,10.23-10.23,5.6,5.6,0,1,1,5.6,5.6Z"/><circle class="cls-1" cx="211.61" cy="416.97" r="5.59"/><path class="cls-1" d="M221.94,464.65a10.23,10.23,0,1,0-20.46,0,5.59,5.59,0,1,1-5.59-5.59,10.23,10.23,0,0,0,10.23-10.23h0a5.6,5.6,0,0,1,5.59-5.6h0a5.6,5.6,0,0,1,5.6,5.6h0a10.23,10.23,0,0,0,10.23,10.23,5.59,5.59,0,1,1-5.6,5.59Z"/><path class="cls-1" d="M195.76,454.13a10.23,10.23,0,0,0,0,20.46,5.6,5.6,0,1,1-5.6,5.59A10.23,10.23,0,0,0,179.94,470h0a5.59,5.59,0,0,1-5.59-5.59h0a5.6,5.6,0,0,1,5.59-5.6h0a10.23,10.23,0,0,0,10.22-10.22,5.6,5.6,0,1,1,5.6,5.59Z"/><path class="cls-1" d="M290.79,422.55a10.23,10.23,0,0,0,0,20.46,5.6,5.6,0,1,1-5.59,5.6A10.23,10.23,0,0,0,275,438.38h0a5.6,5.6,0,0,1-5.6-5.6h0a5.6,5.6,0,0,1,5.6-5.59h0A10.23,10.23,0,0,0,285.2,417a5.59,5.59,0,1,1,5.59,5.59Z"/><circle class="cls-1" cx="211.61" cy="464.54" r="5.59"/><path class="cls-1" d="M122.26,464.6a10.23,10.23,0,1,0,20.46,0,5.6,5.6,0,1,1,5.59,5.59,10.23,10.23,0,0,0-10.22,10.23h0a5.6,5.6,0,0,1-5.6,5.59h0a5.59,5.59,0,0,1-5.59-5.59h0a10.23,10.23,0,0,0-10.23-10.23,5.6,5.6,0,1,1,5.59-5.59Z"/><circle class="cls-1" cx="132.49" cy="464.7" r="5.59"/><circle class="cls-1" cx="211.75" cy="433.11" r="5.59"/><path class="cls-1" d="M196.2,443.49a10.23,10.23,0,0,0,0-20.45,5.6,5.6,0,1,1,5.59-5.6A10.23,10.23,0,0,0,212,427.67h0a5.6,5.6,0,0,1,5.59,5.6h0a5.59,5.59,0,0,1-5.59,5.59h0a10.23,10.23,0,0,0-10.23,10.23,5.6,5.6,0,1,1-5.59-5.6Z"/><circle class="cls-1" cx="69.04" cy="448.89" r="5.59"/><path class="cls-1" d="M27.27,464.71a10.23,10.23,0,1,0,20.46,0,5.6,5.6,0,1,1,5.6,5.6A10.23,10.23,0,0,0,43.1,480.54h0a5.6,5.6,0,0,1-5.6,5.59h0a5.59,5.59,0,0,1-5.59-5.59h0a10.23,10.23,0,0,0-10.23-10.23,5.6,5.6,0,1,1,5.59-5.6Z"/><path class="cls-1" d="M233.33,449a10.23,10.23,0,1,1,20.46,0,5.6,5.6,0,1,0,5.59-5.59,10.23,10.23,0,0,1-10.23-10.23h0a5.59,5.59,0,0,0-5.59-5.59h0a5.6,5.6,0,0,0-5.6,5.59h0a10.23,10.23,0,0,1-10.22,10.23,5.6,5.6,0,1,0,5.59,5.59Z"/><circle class="cls-1" cx="5.73" cy="448.89" r="5.59"/><path class="cls-1" d="M11.4,417.25a10.23,10.23,0,1,1,20.45,0,5.6,5.6,0,1,0,5.6-5.6,10.23,10.23,0,0,1-10.23-10.23h0a5.59,5.59,0,0,0-5.59-5.59h0a5.6,5.6,0,0,0-5.6,5.59h0A10.23,10.23,0,0,1,5.8,411.65a5.6,5.6,0,1,0,5.6,5.6Z"/><path class="cls-1" d="M53.32,454.54a10.23,10.23,0,1,1,0,20.46,5.59,5.59,0,1,0,5.6,5.59,10.23,10.23,0,0,1,10.23-10.23h0a5.59,5.59,0,0,0,5.59-5.59h0a5.6,5.6,0,0,0-5.59-5.6h0a10.23,10.23,0,0,1-10.23-10.23,5.6,5.6,0,1,0-5.6,5.6Z"/><circle class="cls-1" cx="37.61" cy="464.77" r="5.59"/><path class="cls-1" d="M69.15,407a10.23,10.23,0,0,1,0,20.46,5.6,5.6,0,1,0,5.59,5.6A10.23,10.23,0,0,1,85,422.79h0a5.6,5.6,0,0,0,5.59-5.6h0A5.59,5.59,0,0,0,85,411.6h0a10.23,10.23,0,0,1-10.23-10.23A5.6,5.6,0,1,0,69.15,407Z"/><path class="cls-1" d="M69.09,438.61a10.23,10.23,0,1,1,0,20.46,5.6,5.6,0,1,0,5.6,5.59,10.23,10.23,0,0,1,10.23-10.23h0a5.59,5.59,0,0,0,5.59-5.59h0a5.6,5.6,0,0,0-5.59-5.6h0A10.23,10.23,0,0,1,74.69,433a5.6,5.6,0,1,0-5.6,5.59Z"/><path class="cls-1" d="M132.33,427.42a10.23,10.23,0,0,1,0-20.46,5.59,5.59,0,1,0-5.59-5.59,10.23,10.23,0,0,1-10.23,10.23h0a5.59,5.59,0,0,0-5.59,5.59h0a5.6,5.6,0,0,0,5.59,5.6h0A10.23,10.23,0,0,1,126.74,433a5.6,5.6,0,1,0,5.59-5.6Z"/><circle class="cls-1" cx="84.76" cy="464.66" r="5.59"/><path class="cls-1" d="M132.44,475a10.23,10.23,0,0,1,0-20.46,5.6,5.6,0,1,0-5.59-5.6,10.23,10.23,0,0,1-10.23,10.23h0a5.6,5.6,0,0,0-5.6,5.6h0a5.6,5.6,0,0,0,5.6,5.59h0a10.23,10.23,0,0,1,10.23,10.23,5.59,5.59,0,1,0,5.59-5.59Z"/><path class="cls-1" d="M111,448.57a10.23,10.23,0,0,1-20.46,0,5.6,5.6,0,1,0-5.59,5.6,10.23,10.23,0,0,1,10.23,10.22h0a5.59,5.59,0,0,0,5.59,5.59h0a5.6,5.6,0,0,0,5.6-5.59h0a10.23,10.23,0,0,1,10.22-10.22,5.6,5.6,0,1,0-5.59-5.6Z"/><circle class="cls-1" cx="211.81" cy="448.88" r="5.59"/><circle class="cls-1" cx="68.99" cy="417.19" r="5.59"/><circle class="cls-1" cx="100.64" cy="448.84" r="5.59"/><path class="cls-1" d="M121.92,448.81a10.23,10.23,0,1,1,20.46,0,5.6,5.6,0,1,0,5.59-5.59A10.23,10.23,0,0,1,137.74,433h0a5.6,5.6,0,0,0-5.59-5.6h0a5.6,5.6,0,0,0-5.6,5.6h0a10.23,10.23,0,0,1-10.22,10.23,5.6,5.6,0,1,0,5.59,5.59Z"/><path class="cls-1" d="M79.35,385.63a10.23,10.23,0,0,1-20.46,0,5.6,5.6,0,1,0-5.59,5.59,10.23,10.23,0,0,1,10.23,10.23h0A5.59,5.59,0,0,0,69.12,407h0a5.6,5.6,0,0,0,5.6-5.59h0a10.23,10.23,0,0,1,10.22-10.23,5.6,5.6,0,1,0-5.59-5.59Z"/><circle class="cls-1" cx="132.33" cy="464.66" r="5.59"/><path class="cls-1" d="M132.39,375.32a10.23,10.23,0,1,1,0,20.45,5.6,5.6,0,1,0,5.59,5.6,10.23,10.23,0,0,1,10.23-10.23h0a5.59,5.59,0,0,0,5.59-5.59h0a5.6,5.6,0,0,0-5.59-5.6h0A10.23,10.23,0,0,1,138,369.72a5.6,5.6,0,1,0-5.59,5.6Z"/><circle class="cls-1" cx="132.49" cy="385.55" r="5.59"/><path class="cls-1" d="M164.16,443.34a10.23,10.23,0,0,1,0-20.46,5.6,5.6,0,1,0-5.59-5.6,10.23,10.23,0,0,1-10.23,10.23h0a5.6,5.6,0,0,0-5.59,5.6h0a5.59,5.59,0,0,0,5.59,5.59h0a10.23,10.23,0,0,1,10.23,10.23,5.6,5.6,0,1,0,5.59-5.59Z"/><path class="cls-1" d="M153.75,464.73a10.23,10.23,0,0,1,20.46,0,5.6,5.6,0,1,0,5.59-5.6,10.23,10.23,0,0,1-10.23-10.23h0a5.59,5.59,0,0,0-5.59-5.59h0a5.6,5.6,0,0,0-5.6,5.59h0a10.23,10.23,0,0,1-10.23,10.23,5.6,5.6,0,1,0,5.6,5.6Z"/><path class="cls-1" d="M164.22,391.23a10.23,10.23,0,1,1,0,20.46,5.6,5.6,0,1,0,5.59,5.59A10.23,10.23,0,0,1,180,407.06h0a5.6,5.6,0,0,0,5.59-5.6h0a5.59,5.59,0,0,0-5.59-5.59h0a10.23,10.23,0,0,1-10.23-10.23,5.6,5.6,0,1,0-5.59,5.59Z"/><circle class="cls-1" cx="164.32" cy="401.46" r="5.59"/><circle class="cls-1" cx="69.04" cy="401.57" r="5.59"/><path class="cls-1" d="M27.27,417.39a10.23,10.23,0,0,0,20.46,0,5.6,5.6,0,1,1,5.6,5.59A10.23,10.23,0,0,0,43.1,433.21h0a5.6,5.6,0,0,1-5.6,5.6h0a5.6,5.6,0,0,1-5.59-5.6h0A10.23,10.23,0,0,0,21.68,423a5.6,5.6,0,1,1,5.59-5.59Z"/><circle class="cls-1" cx="195.93" cy="417.43" r="5.59"/><path class="cls-1" d="M222,433.25a10.23,10.23,0,1,0-20.45,0,5.6,5.6,0,1,1-5.6-5.59,10.23,10.23,0,0,0,10.23-10.23h0a5.6,5.6,0,0,1,5.59-5.6h0a5.6,5.6,0,0,1,5.6,5.6h0a10.23,10.23,0,0,0,10.23,10.23,5.59,5.59,0,1,1-5.6,5.59Z"/><circle class="cls-1" cx="211.81" cy="433.36" r="5.59"/><path class="cls-1" d="M217.4,417.53a10.23,10.23,0,0,1,20.46,0,5.6,5.6,0,1,0,5.59-5.59,10.23,10.23,0,0,1-10.23-10.23h0a5.59,5.59,0,0,0-5.59-5.59h0a5.59,5.59,0,0,0-5.59,5.59h0a10.24,10.24,0,0,1-10.23,10.23,5.6,5.6,0,1,0,5.59,5.59Z"/><path class="cls-1" d="M11.4,369.92a10.23,10.23,0,1,1,20.45,0,5.6,5.6,0,1,0,5.6-5.59A10.23,10.23,0,0,1,27.22,354.1h0a5.6,5.6,0,0,0-5.59-5.6h0a5.6,5.6,0,0,0-5.6,5.6h0A10.23,10.23,0,0,1,5.8,364.33a5.59,5.59,0,1,0,5.6,5.59Z"/><path class="cls-1" d="M69.09,391.28a10.23,10.23,0,0,1,0,20.46,5.6,5.6,0,1,0,5.6,5.6,10.23,10.23,0,0,1,10.23-10.23h0a5.6,5.6,0,0,0,5.59-5.6h0a5.59,5.59,0,0,0-5.59-5.59h0a10.23,10.23,0,0,1-10.23-10.23,5.6,5.6,0,1,0-5.6,5.59Z"/><path class="cls-1" d="M132.33,380.1a10.23,10.23,0,0,1,0-20.46,5.6,5.6,0,1,0-5.59-5.6,10.23,10.23,0,0,1-10.23,10.23h0a5.6,5.6,0,0,0-5.59,5.6h0a5.59,5.59,0,0,0,5.59,5.59h0a10.23,10.23,0,0,1,10.23,10.23,5.6,5.6,0,1,0,5.59-5.59Z"/><path class="cls-1" d="M37.4,375.51a10.23,10.23,0,0,1,0,20.46,5.6,5.6,0,1,0,5.59,5.6,10.23,10.23,0,0,1,10.23-10.23h0a5.6,5.6,0,0,0,5.59-5.6h0a5.59,5.59,0,0,0-5.59-5.59h0A10.23,10.23,0,0,1,43,369.92a5.6,5.6,0,1,0-5.59,5.59Z"/><path class="cls-1" d="M53.22,411.79a10.23,10.23,0,1,1,0-20.45,5.6,5.6,0,1,0-5.6-5.6A10.22,10.22,0,0,1,37.4,396h0a5.6,5.6,0,0,0-5.6,5.6h0a5.6,5.6,0,0,0,5.6,5.59h0a10.22,10.22,0,0,1,10.22,10.23,5.6,5.6,0,1,0,5.6-5.6Z"/><circle class="cls-1" cx="84.76" cy="417.34" r="5.59"/><path class="cls-1" d="M132.44,427.67a10.23,10.23,0,1,1,0-20.46,5.6,5.6,0,1,0-5.59-5.59,10.23,10.23,0,0,1-10.23,10.23h0a5.6,5.6,0,0,0-5.6,5.59h0a5.6,5.6,0,0,0,5.6,5.6h0a10.23,10.23,0,0,1,10.23,10.22,5.59,5.59,0,1,0,5.59-5.59Z"/><path class="cls-1" d="M111,401.25a10.23,10.23,0,0,1-20.46,0,5.6,5.6,0,1,0-5.59,5.59,10.23,10.23,0,0,1,10.23,10.23h0a5.59,5.59,0,0,0,5.59,5.59h0a5.6,5.6,0,0,0,5.6-5.59h0a10.23,10.23,0,0,1,10.22-10.23,5.6,5.6,0,1,0-5.59-5.59Z"/><circle class="cls-1" cx="211.81" cy="401.55" r="5.59"/><circle class="cls-1" cx="68.99" cy="369.87" r="5.59"/><circle class="cls-1" cx="100.64" cy="401.51" r="5.59"/><path class="cls-1" d="M121.92,401.49a10.23,10.23,0,1,1,20.46,0,5.6,5.6,0,1,0,5.59-5.6,10.23,10.23,0,0,1-10.23-10.23h0a5.59,5.59,0,0,0-5.59-5.59h0a5.6,5.6,0,0,0-5.6,5.59h0a10.23,10.23,0,0,1-10.22,10.23,5.6,5.6,0,1,0,5.59,5.6Z"/><path class="cls-1" d="M11.19,338.21a10.23,10.23,0,0,1,20.46,0,5.59,5.59,0,1,0,5.59-5.6A10.22,10.22,0,0,1,27,322.39h0a5.6,5.6,0,0,0-5.59-5.6h0a5.6,5.6,0,0,0-5.6,5.6h0A10.23,10.23,0,0,1,5.59,332.61a5.6,5.6,0,1,0,5.6,5.6Z"/><path class="cls-1" d="M79.51,369.71a10.23,10.23,0,0,1-20.46,0,5.6,5.6,0,1,0-5.59,5.6,10.22,10.22,0,0,1,10.23,10.22h0a5.6,5.6,0,0,0,5.59,5.6h0a5.6,5.6,0,0,0,5.59-5.6h0A10.23,10.23,0,0,1,85.1,375.31a5.6,5.6,0,1,0-5.59-5.6Z"/><circle class="cls-1" cx="132.33" cy="417.34" r="5.59"/><path class="cls-1" d="M164.16,396a10.23,10.23,0,0,1,0-20.46,5.6,5.6,0,1,0-5.59-5.59,10.23,10.23,0,0,1-10.23,10.23h0a5.59,5.59,0,0,0-5.59,5.59h0a5.6,5.6,0,0,0,5.59,5.6h0a10.23,10.23,0,0,1,10.23,10.22,5.6,5.6,0,1,0,5.59-5.59Z"/><path class="cls-1" d="M164.27,443.59a10.23,10.23,0,0,1,0-20.46,5.6,5.6,0,1,0-5.59-5.6,10.23,10.23,0,0,1-10.23,10.23h0a5.6,5.6,0,0,0-5.6,5.6h0a5.6,5.6,0,0,0,5.6,5.59h0a10.23,10.23,0,0,1,10.23,10.23,5.59,5.59,0,1,0,5.59-5.59Z"/><circle class="cls-1" cx="164.16" cy="433.25" r="5.59"/><circle class="cls-1" cx="53.13" cy="322.41" r="5.59"/><path class="cls-1" d="M11.36,338.23a10.23,10.23,0,0,0,20.46,0,5.59,5.59,0,1,1,5.59,5.6,10.23,10.23,0,0,0-10.23,10.23h0a5.59,5.59,0,0,1-5.59,5.59h0a5.6,5.6,0,0,1-5.6-5.59h0A10.23,10.23,0,0,0,5.76,343.83a5.6,5.6,0,1,1,5.6-5.6Z"/><path class="cls-1" d="M37.41,328.06a10.23,10.23,0,1,1,0,20.46A5.59,5.59,0,1,0,43,354.11a10.23,10.23,0,0,1,10.23-10.23h0a5.6,5.6,0,0,0,5.6-5.59h0a5.6,5.6,0,0,0-5.6-5.6h0A10.23,10.23,0,0,1,43,322.46a5.59,5.59,0,1,0-5.59,5.6Z"/><circle class="cls-1" cx="21.69" cy="338.29" r="5.59"/><path class="cls-1" d="M11.25,322.41a10.23,10.23,0,0,1,20.46,0,5.6,5.6,0,1,0,5.59-5.59,10.23,10.23,0,0,1-10.22-10.23h0a5.6,5.6,0,0,0-5.6-5.6h0a5.6,5.6,0,0,0-5.59,5.6h0A10.23,10.23,0,0,1,5.66,316.82a5.59,5.59,0,1,0,5.59,5.59Z"/><path class="cls-1" d="M47.53,306.59a10.23,10.23,0,1,1-20.45,0,5.6,5.6,0,1,0-5.6,5.59,10.23,10.23,0,0,1,10.23,10.23h0A5.59,5.59,0,0,0,37.3,328h0a5.6,5.6,0,0,0,5.6-5.59h0a10.23,10.23,0,0,1,10.23-10.23,5.6,5.6,0,1,0-5.6-5.59Z"/><circle class="cls-1" cx="68.84" cy="338.18" r="5.59"/><circle class="cls-1" cx="53.07" cy="290.71" r="5.59"/><circle class="cls-1" cx="100.64" cy="354.19" r="5.59"/><path class="cls-1" d="M37.41,280.73a10.23,10.23,0,1,1,0,20.46A5.6,5.6,0,1,0,43,306.78a10.22,10.22,0,0,1,10.23-10.22h0a5.6,5.6,0,0,0,5.6-5.6h0a5.6,5.6,0,0,0-5.6-5.59h0A10.23,10.23,0,0,1,43,275.14a5.59,5.59,0,1,0-5.59,5.59Z"/><path class="cls-1" d="M74.43,370a10.23,10.23,0,0,1,20.46,0,5.59,5.59,0,1,0,5.59-5.6,10.23,10.23,0,0,1-10.23-10.22h0a5.6,5.6,0,0,0-5.59-5.6h0a5.6,5.6,0,0,0-5.6,5.6h0a10.23,10.23,0,0,1-10.23,10.22,5.6,5.6,0,1,0,5.6,5.6Z"/><circle class="cls-1" cx="68.88" cy="464.67" r="5.59"/><circle class="cls-1" cx="21.56" cy="464.67" r="5.59"/><circle class="cls-1" cx="211.33" cy="449" r="5.59"/><path class="cls-1" d="M227.16,407.23a10.23,10.23,0,0,1,0,20.46,5.59,5.59,0,1,0,5.59,5.59A10.23,10.23,0,0,1,243,423.05h0a5.59,5.59,0,0,0,5.59-5.59h0a5.6,5.6,0,0,0-5.59-5.6h0a10.23,10.23,0,0,1-10.23-10.23,5.6,5.6,0,1,0-5.59,5.6Z"/><circle class="cls-1" cx="211.28" cy="306.59" r="5.59"/><path class="cls-1" d="M227.1,332.64a10.23,10.23,0,0,1,0-20.46,5.59,5.59,0,1,0-5.59-5.59,10.23,10.23,0,0,1-10.23,10.23h0a5.59,5.59,0,0,0-5.59,5.59h0a5.6,5.6,0,0,0,5.59,5.6h0a10.23,10.23,0,0,1,10.23,10.23,5.6,5.6,0,1,0,5.59-5.6Z"/><circle class="cls-1" cx="227.21" cy="322.47" r="5.59"/><path class="cls-1" d="M211.17,344a10.23,10.23,0,1,1,0,20.46,5.59,5.59,0,1,0,5.6,5.59A10.23,10.23,0,0,1,227,359.81h0a5.59,5.59,0,0,0,5.59-5.59h0a5.6,5.6,0,0,0-5.59-5.6h0a10.23,10.23,0,0,1-10.23-10.23,5.6,5.6,0,1,0-5.6,5.6Z"/><path class="cls-1" d="M211.39,328.06a10.23,10.23,0,1,0,0,20.46,5.6,5.6,0,1,1-5.6,5.59,10.23,10.23,0,0,0-10.23-10.23h0a5.59,5.59,0,0,1-5.59-5.59h0a5.6,5.6,0,0,1,5.59-5.6h0a10.23,10.23,0,0,0,10.23-10.22,5.6,5.6,0,1,1,5.6,5.59Z"/><circle class="cls-1" cx="195.45" cy="354.15" r="5.59"/><circle class="cls-1" cx="227.21" cy="417.56" r="5.59"/><path class="cls-1" d="M169.41,449.1a10.23,10.23,0,1,0,20.45,0,5.6,5.6,0,1,1,5.6,5.6,10.23,10.23,0,0,0-10.23,10.22h0a5.6,5.6,0,0,1-5.6,5.6h0a5.6,5.6,0,0,1-5.59-5.6h0a10.23,10.23,0,0,0-10.23-10.22,5.6,5.6,0,1,1,5.6-5.6Z"/><path class="cls-1" d="M201.05,449.05a10.23,10.23,0,0,0,20.46,0,5.6,5.6,0,1,1,5.59,5.59,10.23,10.23,0,0,0-10.23,10.23h0a5.6,5.6,0,0,1-5.59,5.6h0a5.6,5.6,0,0,1-5.59-5.6h0a10.24,10.24,0,0,0-10.23-10.23,5.6,5.6,0,1,1,5.59-5.59Z"/><path class="cls-1" d="M185.28,417.35a10.23,10.23,0,0,0,20.46,0,5.6,5.6,0,1,1,5.59,5.59,10.23,10.23,0,0,0-10.23,10.23h0a5.6,5.6,0,0,1-5.59,5.6h0a5.6,5.6,0,0,1-5.59-5.6h0a10.24,10.24,0,0,0-10.23-10.23,5.59,5.59,0,1,1,5.59-5.59Z"/><path class="cls-1" d="M195.51,443.4a10.23,10.23,0,1,0,0-20.46,5.59,5.59,0,1,1,5.59-5.59,10.23,10.23,0,0,0,10.23,10.23h0a5.6,5.6,0,0,1,5.6,5.59h0a5.6,5.6,0,0,1-5.6,5.6h0A10.23,10.23,0,0,0,201.1,449a5.59,5.59,0,1,1-5.59-5.6Z"/><circle class="cls-1" cx="227.1" cy="464.71" r="5.59"/><circle class="cls-1" cx="195.4" cy="322.47" r="5.59"/><path class="cls-1" d="M211.25,264.41a10.23,10.23,0,0,0,0,20.46,5.59,5.59,0,1,1-5.59,5.59,10.23,10.23,0,0,0-10.23-10.23h0a5.59,5.59,0,0,1-5.59-5.59h0a5.6,5.6,0,0,1,5.59-5.6h0a10.23,10.23,0,0,0,10.23-10.23,5.6,5.6,0,1,1,5.59,5.6Z"/><path class="cls-1" d="M169.6,338.29a10.23,10.23,0,1,0,20.46,0,5.6,5.6,0,1,1,5.59,5.59,10.24,10.24,0,0,0-10.23,10.23h0a5.6,5.6,0,0,1-5.59,5.6h0a5.6,5.6,0,0,1-5.59-5.6h0A10.23,10.23,0,0,0,164,343.88a5.6,5.6,0,1,1,5.59-5.59Z"/><path class="cls-1" d="M221.52,306.34a10.23,10.23,0,1,0-20.45,0,5.6,5.6,0,1,1-5.6-5.6,10.21,10.21,0,0,0,10.23-10.22h0a5.6,5.6,0,0,1,5.59-5.6h0a5.6,5.6,0,0,1,5.6,5.6h0a10.22,10.22,0,0,0,10.23,10.22,5.6,5.6,0,1,1-5.6,5.6Z"/></g></g></svg>