<svg id="Capa_1" data-name="Capa 1" xmlns="http://www.w3.org/2000/svg" width="228.16" height="40" viewBox="0 0 228.16 40"><defs><style>.cls-1{fill:#ffffff;}.cls-2{isolation:isolate;}</style></defs><title>logo-cifras-santander</title><g id="Layer_2" data-name="Layer 2"><circle class="cls-1" cx="34.78" cy="5.22" r="5.22"/><circle class="cls-1" cx="20" cy="20" r="5.22"/><g class="cls-2"><g class="cls-2"><path class="cls-1" d="M56.57,4.09H59.8a6,6,0,0,1,3.29.68,2.41,2.41,0,0,1,1,2.15,2.51,2.51,0,0,1-.56,1.67,2.74,2.74,0,0,1-1.66.86v.08c1.74.29,2.6,1.2,2.6,2.73a2.93,2.93,0,0,1-1,2.39,4.44,4.44,0,0,1-2.9.86h-4ZM57.9,9h2.19a3.6,3.6,0,0,0,2-.44,1.72,1.72,0,0,0,.62-1.49A1.52,1.52,0,0,0,62,5.66a4.36,4.36,0,0,0-2.19-.42h-2Zm0,1.12v4.28h2.38a3.36,3.36,0,0,0,2.08-.54,2,2,0,0,0,.7-1.67,1.81,1.81,0,0,0-.71-1.57,3.86,3.86,0,0,0-2.18-.5Z"/></g><g class="cls-2"><path class="cls-1" d="M66.92,15.51V4.09h1.33V15.51Z"/></g><g class="cls-2"><path class="cls-1" d="M81.27,9.78a6.33,6.33,0,0,1-1.38,4.32,5.59,5.59,0,0,1-7.75,0,6.31,6.31,0,0,1-1.37-4.35,6.27,6.27,0,0,1,1.37-4.33,5,5,0,0,1,3.91-1.53,4.86,4.86,0,0,1,3.84,1.56A6.29,6.29,0,0,1,81.27,9.78Zm-9.1,0a5.41,5.41,0,0,0,1,3.52,4,4,0,0,0,5.74,0,5.56,5.56,0,0,0,1-3.53,5.4,5.4,0,0,0-1-3.49A3.43,3.43,0,0,0,76.05,5.1a3.55,3.55,0,0,0-2.89,1.19A5.38,5.38,0,0,0,72.17,9.78Z"/></g><g class="cls-2"><path class="cls-1" d="M92.89,9.69A5.71,5.71,0,0,1,91.35,14a6.05,6.05,0,0,1-4.42,1.5H83.77V4.09h3.5a5.6,5.6,0,0,1,4.14,1.47A5.57,5.57,0,0,1,92.89,9.69Zm-1.41.05a4.59,4.59,0,0,0-1.12-3.37A4.48,4.48,0,0,0,87,5.24H85.1v9.12h1.62a4.92,4.92,0,0,0,3.57-1.17A4.63,4.63,0,0,0,91.48,9.74Z"/></g><g class="cls-2"><path class="cls-1" d="M95.37,15.51V4.09H96.7V15.51Z"/></g><g class="cls-2"><path class="cls-1" d="M106.49,4.09h1.43l-4.11,11.42h-1.32L98.4,4.09h1.41l2.62,7.39a21.37,21.37,0,0,1,.72,2.48,21.33,21.33,0,0,1,.73-2.53Z"/></g><g class="cls-2"><path class="cls-1" d="M116,15.51h-6.37V4.09H116V5.27h-5V9h4.73v1.17H111v4.2h5Z"/></g><g class="cls-2"><path class="cls-1" d="M119.62,10.76v4.75h-1.33V4.09h3.13a5,5,0,0,1,3.11.8,2.92,2.92,0,0,1,1,2.42,3,3,0,0,1-2.29,3.07l3.1,5.13h-1.57L122,10.76Zm0-1.14h1.82a3.15,3.15,0,0,0,2.06-.56,2.07,2.07,0,0,0,.66-1.68,1.92,1.92,0,0,0-.67-1.63,3.66,3.66,0,0,0-2.15-.5h-1.72Z"/></g><g class="cls-2"><path class="cls-1" d="M135,12.47a2.79,2.79,0,0,1-1.1,2.35,4.76,4.76,0,0,1-3,.85,7.4,7.4,0,0,1-3.12-.53V13.86a7.81,7.81,0,0,0,1.53.47,8.38,8.38,0,0,0,1.64.17,3.35,3.35,0,0,0,2-.5,1.66,1.66,0,0,0,.67-1.4,1.82,1.82,0,0,0-.24-1,2.31,2.31,0,0,0-.79-.7,12,12,0,0,0-1.7-.72,5.49,5.49,0,0,1-2.28-1.35,3,3,0,0,1-.68-2,2.53,2.53,0,0,1,1-2.1,4.05,4.05,0,0,1,2.62-.79,7.73,7.73,0,0,1,3.14.63l-.42,1.16a7,7,0,0,0-2.75-.6,2.69,2.69,0,0,0-1.65.45,1.53,1.53,0,0,0-.59,1.26,1.86,1.86,0,0,0,.22,1,1.93,1.93,0,0,0,.74.7,9.16,9.16,0,0,0,1.59.7,6.5,6.5,0,0,1,2.47,1.37A2.72,2.72,0,0,1,135,12.47Z"/></g><g class="cls-2"><path class="cls-1" d="M137.18,15.51V4.09h1.33V15.51Z"/></g><g class="cls-2"><path class="cls-1" d="M150.65,9.69A5.71,5.71,0,0,1,149.11,14a6.05,6.05,0,0,1-4.42,1.5h-3.16V4.09H145a5.6,5.6,0,0,1,4.14,1.47A5.57,5.57,0,0,1,150.65,9.69Zm-1.41.05a4.59,4.59,0,0,0-1.12-3.37,4.48,4.48,0,0,0-3.33-1.13h-1.93v9.12h1.62a4.92,4.92,0,0,0,3.57-1.17A4.63,4.63,0,0,0,149.24,9.74Z"/></g><g class="cls-2"><path class="cls-1" d="M160.07,15.51l-1.42-3.63h-4.58l-1.41,3.63h-1.34L155.84,4H157l4.5,11.47Zm-1.84-4.83-1.32-3.54a15.48,15.48,0,0,1-.53-1.65,14.82,14.82,0,0,1-.5,1.65l-1.34,3.54Z"/></g><g class="cls-2"><path class="cls-1" d="M172.3,9.69A5.71,5.71,0,0,1,170.76,14a6.05,6.05,0,0,1-4.42,1.5h-3.16V4.09h3.5a5.6,5.6,0,0,1,4.14,1.47A5.57,5.57,0,0,1,172.3,9.69Zm-1.41.05a4.59,4.59,0,0,0-1.12-3.37,4.48,4.48,0,0,0-3.33-1.13h-1.93v9.12h1.62a4.92,4.92,0,0,0,3.57-1.17A4.63,4.63,0,0,0,170.89,9.74Z"/></g><g class="cls-2"><path class="cls-1" d="M62.94,33.51H56.57V22.09h6.37v1.18h-5V27h4.73v1.17H57.9v4.2h5Z"/></g><g class="cls-2"><path class="cls-1" d="M74.16,33.51H72.65L66.4,23.92h-.06c.08,1.13.13,2.16.13,3.1v6.49H65.24V22.09h1.5L73,31.63H73c0-.14,0-.59-.07-1.35s0-1.31,0-1.64V22.09h1.24Z"/></g><g class="cls-2"><path class="cls-1" d="M86.17,23.94a2.46,2.46,0,0,0-2.12,1,4.77,4.77,0,0,0-.75,2.86q0,3.83,2.87,3.82a9.07,9.07,0,0,0,2.91-.6v2a8.06,8.06,0,0,1-3.14.59,4.78,4.78,0,0,1-3.81-1.52,6.38,6.38,0,0,1-1.32-4.34,7.16,7.16,0,0,1,.65-3.12,4.69,4.69,0,0,1,1.86-2.05,5.49,5.49,0,0,1,2.85-.72,7.63,7.63,0,0,1,3.34.81l-.78,2a11.69,11.69,0,0,0-1.29-.53A3.59,3.59,0,0,0,86.17,23.94Z"/></g><g class="cls-2"><path class="cls-1" d="M91.43,33.51V22.09h2.42V33.51Z"/></g><g class="cls-2"><path class="cls-1" d="M99.05,33.51H96.67V22.09h6.54v2H99.05V27h3.88v2H99.05Z"/></g><g class="cls-2"><path class="cls-1" d="M107.66,29.13v4.38h-2.42V22.09h3.33a5.64,5.64,0,0,1,3.44.85,3,3,0,0,1,1.12,2.57,3,3,0,0,1-.56,1.79A3.56,3.56,0,0,1,111,28.53q2.58,3.86,3.36,5h-2.69L109,29.13Zm0-2h.78a3.05,3.05,0,0,0,1.7-.38,1.39,1.39,0,0,0,.54-1.21,1.23,1.23,0,0,0-.56-1.15,3.37,3.37,0,0,0-1.73-.35h-.73Z"/></g><g class="cls-2"><path class="cls-1" d="M123.71,33.51l-.83-2.72h-4.16l-.83,2.72h-2.61l4-11.47h3l4,11.47Zm-1.41-4.75L121,24.58c-.1-.32-.17-.58-.21-.77q-.26,1-1.47,5Z"/></g><g class="cls-2"><path class="cls-1" d="M135,30.34a3,3,0,0,1-1.11,2.44,4.89,4.89,0,0,1-3.1.89,7.28,7.28,0,0,1-3.24-.69V30.73a15.31,15.31,0,0,0,2,.73,5.85,5.85,0,0,0,1.47.21,2.11,2.11,0,0,0,1.22-.31,1,1,0,0,0,.42-.9,1,1,0,0,0-.18-.6,2.1,2.1,0,0,0-.55-.51,15.23,15.23,0,0,0-1.48-.77,6.55,6.55,0,0,1-1.57-.95,3.54,3.54,0,0,1-.84-1.05,3,3,0,0,1-.31-1.41,3,3,0,0,1,1-2.38,4.28,4.28,0,0,1,2.84-.87,6.71,6.71,0,0,1,1.7.21,11.88,11.88,0,0,1,1.69.6l-.78,1.88a11.43,11.43,0,0,0-1.51-.52,4.82,4.82,0,0,0-1.17-.15,1.6,1.6,0,0,0-1.06.32,1.07,1.07,0,0,0-.37.84,1,1,0,0,0,.15.55,1.66,1.66,0,0,0,.48.47,16.22,16.22,0,0,0,1.53.8,6.18,6.18,0,0,1,2.2,1.53A3,3,0,0,1,135,30.34Z"/></g></g><g class="cls-2"><g class="cls-2"><path class="cls-1" d="M159,30.55a2.79,2.79,0,0,1-1.1,2.35,4.76,4.76,0,0,1-3,.85,7.4,7.4,0,0,1-3.12-.53V31.94a7.81,7.81,0,0,0,1.53.47,8.38,8.38,0,0,0,1.64.17,3.35,3.35,0,0,0,2-.5,1.66,1.66,0,0,0,.67-1.4,1.82,1.82,0,0,0-.24-1,2.31,2.31,0,0,0-.79-.7,12,12,0,0,0-1.7-.72,5.42,5.42,0,0,1-2.28-1.35,3,3,0,0,1-.68-2,2.53,2.53,0,0,1,1-2.1,4.07,4.07,0,0,1,2.62-.79,7.73,7.73,0,0,1,3.14.63l-.42,1.16a7,7,0,0,0-2.75-.6,2.69,2.69,0,0,0-1.65.45,1.53,1.53,0,0,0-.59,1.26,1.92,1.92,0,0,0,.22,1,2.08,2.08,0,0,0,.74.69,9.16,9.16,0,0,0,1.59.7,6.5,6.5,0,0,1,2.47,1.37A2.72,2.72,0,0,1,159,30.55Z"/></g><g class="cls-2"><path class="cls-1" d="M166.61,33.59l-.26-1.22h-.06A3.55,3.55,0,0,1,165,33.46a3.86,3.86,0,0,1-1.59.29,2.83,2.83,0,0,1-2-.66,2.41,2.41,0,0,1-.73-1.87c0-1.73,1.39-2.63,4.15-2.72l1.46,0v-.53a2.16,2.16,0,0,0-.44-1.49,1.78,1.78,0,0,0-1.38-.48,5.75,5.75,0,0,0-2.43.65l-.39-1a6.08,6.08,0,0,1,2.89-.73,3.23,3.23,0,0,1,2.27.68,2.8,2.8,0,0,1,.74,2.18v5.84Zm-2.93-.91a2.63,2.63,0,0,0,1.9-.67,2.45,2.45,0,0,0,.69-1.86v-.77l-1.29.05a4.79,4.79,0,0,0-2.23.48,1.46,1.46,0,0,0-.69,1.33,1.36,1.36,0,0,0,.43,1.07A1.78,1.78,0,0,0,163.68,32.68Z"/></g><g class="cls-2"><path class="cls-1" d="M176,33.59V28.05a2.21,2.21,0,0,0-.47-1.56A1.93,1.93,0,0,0,174,26a2.43,2.43,0,0,0-2,.73,3.63,3.63,0,0,0-.63,2.4v4.49h-1.3V25h1.06l.21,1.17h.06a2.68,2.68,0,0,1,1.12-1,3.65,3.65,0,0,1,1.6-.35,3.25,3.25,0,0,1,2.33.75A3.16,3.16,0,0,1,177.3,28v5.59Z"/></g><g class="cls-2"><path class="cls-1" d="M182.67,32.68a3.52,3.52,0,0,0,.66-.06,3,3,0,0,0,.51-.1v1a2.06,2.06,0,0,1-.62.17,5.24,5.24,0,0,1-.74.07c-1.65,0-2.48-.88-2.48-2.62V26h-1.23v-.63l1.23-.54.55-1.83h.75v2h2.48v1H181.3v5a1.75,1.75,0,0,0,.36,1.19A1.28,1.28,0,0,0,182.67,32.68Z"/></g><g class="cls-2"><path class="cls-1" d="M191.08,33.59l-.26-1.22h-.06a3.55,3.55,0,0,1-1.28,1.09,3.86,3.86,0,0,1-1.59.29,2.83,2.83,0,0,1-2-.66,2.41,2.41,0,0,1-.73-1.87c0-1.73,1.39-2.63,4.15-2.72l1.46,0v-.53a2.16,2.16,0,0,0-.44-1.49A1.78,1.78,0,0,0,189,26a5.75,5.75,0,0,0-2.43.65l-.4-1a6.27,6.27,0,0,1,1.39-.54,6,6,0,0,1,1.51-.19,3.23,3.23,0,0,1,2.27.68,2.84,2.84,0,0,1,.74,2.18v5.84Zm-2.93-.91a2.63,2.63,0,0,0,1.9-.67,2.45,2.45,0,0,0,.69-1.86v-.77l-1.29.05a4.79,4.79,0,0,0-2.23.48,1.46,1.46,0,0,0-.69,1.33,1.36,1.36,0,0,0,.43,1.07A1.78,1.78,0,0,0,188.15,32.68Z"/></g><g class="cls-2"><path class="cls-1" d="M200.46,33.59V28.05a2.26,2.26,0,0,0-.47-1.56A1.93,1.93,0,0,0,198.5,26a2.43,2.43,0,0,0-2,.73,3.63,3.63,0,0,0-.63,2.4v4.49h-1.29V25h1l.21,1.17h.06a2.68,2.68,0,0,1,1.12-1,3.65,3.65,0,0,1,1.6-.35,3.25,3.25,0,0,1,2.33.75,3.16,3.16,0,0,1,.78,2.38v5.59Z"/></g><g class="cls-2"><path class="cls-1" d="M210.21,32.44h-.07a3,3,0,0,1-2.68,1.31,3.19,3.19,0,0,1-2.62-1.15,5.09,5.09,0,0,1-.93-3.27,5.11,5.11,0,0,1,.94-3.29,3.14,3.14,0,0,1,2.61-1.17,3.1,3.1,0,0,1,2.67,1.27h.1l-.06-.62,0-.6V21.43h1.3V33.59h-1.06Zm-2.59.22a2.35,2.35,0,0,0,1.92-.72,3.64,3.64,0,0,0,.6-2.33v-.28a4.35,4.35,0,0,0-.6-2.6A2.34,2.34,0,0,0,207.6,26a2,2,0,0,0-1.74.88,4.37,4.37,0,0,0-.61,2.51,4.2,4.2,0,0,0,.6,2.47A2,2,0,0,0,207.62,32.66Z"/></g><g class="cls-2"><path class="cls-1" d="M217.72,33.75a3.93,3.93,0,0,1-3-1.16,4.44,4.44,0,0,1-1.1-3.21,5,5,0,0,1,1-3.29,3.39,3.39,0,0,1,2.74-1.22,3.2,3.2,0,0,1,2.54,1.06,4,4,0,0,1,.94,2.79v.82H215a3.42,3.42,0,0,0,.76,2.29,2.64,2.64,0,0,0,2,.78A7,7,0,0,0,220.5,32v1.15a7,7,0,0,1-1.3.43A7.75,7.75,0,0,1,217.72,33.75ZM217.37,26a2.08,2.08,0,0,0-1.64.67,3.15,3.15,0,0,0-.73,1.86h4.48a2.81,2.81,0,0,0-.55-1.88A1.89,1.89,0,0,0,217.37,26Z"/></g><g class="cls-2"><path class="cls-1" d="M226.91,24.87a5.23,5.23,0,0,1,1,.09l-.18,1.21a4.23,4.23,0,0,0-.93-.12,2.28,2.28,0,0,0-1.78.84A3.12,3.12,0,0,0,224.3,29v4.59H223V25h1.08l.14,1.58h.07a3.9,3.9,0,0,1,1.14-1.29A2.63,2.63,0,0,1,226.91,24.87Z"/></g></g><path class="cls-1" d="M20,10.45a9.55,9.55,0,0,0,0,19.1,5.23,5.23,0,1,1-5.22,5.24h0a9.56,9.56,0,0,0-9.56-9.56h0A5.22,5.22,0,0,1,0,20H0a5.22,5.22,0,0,1,5.22-5.22h0a9.56,9.56,0,0,0,9.56-9.56h0A5.22,5.22,0,1,1,20,10.45Z"/><circle class="cls-1" cx="143.32" cy="27.82" r="1.38"/></g></svg>