<svg xmlns="http://www.w3.org/2000/svg" viewBox="0 0 131.5 40"><defs><style>.cls-1{fill:#fff;}</style></defs><title>logo-datos</title><g id="Layer_2" data-name="Layer 2"><g id="Lineamientos"><path class="cls-1" d="M63.81,7.42a3.22,3.22,0,0,1-1.18,2.67,5.39,5.39,0,0,1-3.39.93H57.9v4.49H56.57V4.09h3C62.39,4.09,63.81,5.2,63.81,7.42ZM57.9,9.88h1.19a4.47,4.47,0,0,0,2.56-.57,2.12,2.12,0,0,0,.79-1.83,2,2,0,0,0-.74-1.69,3.91,3.91,0,0,0-2.32-.55H57.9Z"/><path class="cls-1" d="M76.11,9.79a6.32,6.32,0,0,1-1.39,4.31,4.9,4.9,0,0,1-3.86,1.57A5,5,0,0,1,67,14.13,6.38,6.38,0,0,1,65.6,9.77,6.27,6.27,0,0,1,67,5.45a5,5,0,0,1,3.91-1.54,4.86,4.86,0,0,1,3.84,1.56A6.27,6.27,0,0,1,76.11,9.79ZM67,9.79a5.43,5.43,0,0,0,1,3.52,3.54,3.54,0,0,0,2.87,1.19,3.45,3.45,0,0,0,2.87-1.19,5.47,5.47,0,0,0,1-3.52,5.47,5.47,0,0,0-1-3.5A3.49,3.49,0,0,0,70.88,5.1,3.53,3.53,0,0,0,68,6.3,5.36,5.36,0,0,0,67,9.79Z"/><path class="cls-1" d="M79.93,10.76v4.75H78.6V4.09h3.13a5,5,0,0,1,3.11.8,2.93,2.93,0,0,1,1,2.43,3,3,0,0,1-2.29,3.06l3.1,5.13H85.08l-2.77-4.75Zm0-1.14h1.82a3.15,3.15,0,0,0,2.06-.56,2.06,2.06,0,0,0,.66-1.67,1.94,1.94,0,0,0-.67-1.64,3.66,3.66,0,0,0-2.15-.5H79.93Z"/><path class="cls-1" d="M92.11,15.51H90.78V5.27H87.16V4.09h8.56V5.27H92.11Z"/><path class="cls-1" d="M103.68,15.51l-1.42-3.63H97.68l-1.4,3.63H94.93L99.45,4h1.12l4.49,11.47Zm-1.83-4.83-1.33-3.54c-.17-.44-.35-1-.53-1.64a16.12,16.12,0,0,1-.49,1.64l-1.35,3.54Z"/><path class="cls-1" d="M106.8,15.51V4.09h1.33V14.31h5v1.2Z"/><path class="cls-1" d="M65.69,27.69A5.75,5.75,0,0,1,64.15,32a6.09,6.09,0,0,1-4.42,1.49H56.57V22.09h3.5a5.56,5.56,0,0,1,4.14,1.48A5.55,5.55,0,0,1,65.69,27.69Zm-1.41,0a4.6,4.6,0,0,0-1.12-3.37,4.52,4.52,0,0,0-3.33-1.13H57.9v9.12h1.62a5,5,0,0,0,3.57-1.16A4.65,4.65,0,0,0,64.28,27.74Z"/><path class="cls-1" d="M74.52,33.51H68.15V22.09h6.37v1.18h-5V27h4.73v1.17H69.48v4.2h5Z"/><path class="cls-1" d="M90.55,27.69A5.62,5.62,0,0,1,89,32a6.56,6.56,0,0,1-4.64,1.5H81.07V22.09h3.59A6,6,0,0,1,89,23.57,5.39,5.39,0,0,1,90.55,27.69ZM88,27.75c0-2.45-1.09-3.68-3.25-3.68H83.5v7.44h1Q88,31.51,88,27.75Z"/><path class="cls-1" d="M99.62,33.51l-.82-2.72H94.63l-.83,2.72H91.19l4-11.47h3l4,11.47Zm-1.4-4.75c-.77-2.46-1.2-3.85-1.3-4.18s-.16-.58-.2-.76c-.17.66-.67,2.31-1.48,4.94Z"/><path class="cls-1" d="M107.27,33.51h-2.42v-9.4h-3.1v-2h8.62v2h-3.1Z"/><path class="cls-1" d="M122.43,27.79A6.15,6.15,0,0,1,121,32.14a6.07,6.07,0,0,1-8.06,0,6.19,6.19,0,0,1-1.4-4.37A6.16,6.16,0,0,1,113,23.41a6.15,6.15,0,0,1,8.07,0A6.21,6.21,0,0,1,122.43,27.79Zm-8.34,0a4.81,4.81,0,0,0,.73,2.88,2.57,2.57,0,0,0,2.17,1c1.94,0,2.9-1.29,2.9-3.85s-1-3.86-2.88-3.86a2.56,2.56,0,0,0-2.18,1A4.75,4.75,0,0,0,114.09,27.79Z"/><path class="cls-1" d="M131.5,30.34a3,3,0,0,1-1.12,2.44,4.85,4.85,0,0,1-3.1.89,7.27,7.27,0,0,1-3.23-.69V30.73a13.49,13.49,0,0,0,2,.73,5.77,5.77,0,0,0,1.46.21,2,2,0,0,0,1.22-.31,1,1,0,0,0,.43-.9,1,1,0,0,0-.19-.6,1.94,1.94,0,0,0-.55-.5,12.62,12.62,0,0,0-1.48-.78,7.15,7.15,0,0,1-1.57-.94,3.39,3.39,0,0,1-.83-1.06,3.27,3.27,0,0,1,.71-3.79,4.3,4.3,0,0,1,2.84-.86,6.77,6.77,0,0,1,1.7.21,12.23,12.23,0,0,1,1.69.59l-.78,1.88a11.43,11.43,0,0,0-1.51-.52,4.83,4.83,0,0,0-1.18-.15,1.55,1.55,0,0,0-1,.32,1.13,1.13,0,0,0-.22,1.4,1.72,1.72,0,0,0,.47.46,15.75,15.75,0,0,0,1.54.8,6.13,6.13,0,0,1,2.19,1.53A3,3,0,0,1,131.5,30.34Z"/><path class="cls-1" d="M34.78,14.78h0a9.56,9.56,0,0,1-9.56-9.56A5.22,5.22,0,0,0,20,0h0a5.22,5.22,0,0,0-5.22,5.22,9.56,9.56,0,0,1-9.56,9.56h0a5.22,5.22,0,0,0,0,10.44h0a9.56,9.56,0,0,1,9.56,9.56A5.22,5.22,0,0,0,20,40h0a5.22,5.22,0,0,0,5.22-5.22,9.56,9.56,0,0,1,9.56-9.56h0a5.22,5.22,0,0,0,0-10.44ZM20,29.55A9.55,9.55,0,1,1,29.55,20,9.54,9.54,0,0,1,20,29.55Z"/><circle id="_Ellipse_" data-name="&lt;Ellipse&gt;" class="cls-1" cx="20" cy="20" r="5.22"/></g></g></svg>