<?xml version="1.0" encoding="utf-8"?>
<!-- Generator: Adobe Illustrator 23.0.0, SVG Export Plug-In . SVG Version: 6.00 Build 0)  -->
<svg version="1.1" id="Lineamientos" xmlns="http://www.w3.org/2000/svg" xmlns:xlink="http://www.w3.org/1999/xlink" x="0px"
	 y="0px" viewBox="0 0 415.6 111.3" style="enable-background:new 0 0 415.6 111.3;" xml:space="preserve">
<style type="text/css">
	.st0{fill:#FFFFFF;}
</style>
<g>
	<title>l-cifras</title>
	<path class="st0" d="M137.4,18.2h7.7c2.7-0.2,5.4,0.4,7.8,1.6c1.6,1.2,2.5,3.1,2.4,5.1c0,1.5-0.5,2.9-1.4,4c-1,1.1-2.4,1.9-3.9,2
		v0.1c4.1,0.7,6.2,2.9,6.2,6.5c0.1,2.2-0.7,4.3-2.4,5.7c-2,1.5-4.4,2.2-6.9,2h-9.5L137.4,18.2z M140.6,29.9h5.2
		c1.7,0.1,3.3-0.2,4.8-1c1.1-0.9,1.6-2.2,1.5-3.5c0.1-1.3-0.5-2.6-1.6-3.3c-1.6-0.8-3.4-1.1-5.2-1h-4.6V29.9z M140.6,32.6v10.2h5.7
		c1.7,0.1,3.5-0.3,5-1.3c1.2-1,1.8-2.5,1.7-4c0.1-1.4-0.5-2.8-1.7-3.7c-1.6-0.9-3.4-1.3-5.2-1.2H140.6z"/>
	<path class="st0" d="M162,45.4V18.2h3.2v27.2H162z"/>
	<path class="st0" d="M196.2,31.8c0.2,3.7-1,7.4-3.3,10.3c-5.2,5-13.3,5-18.4,0c-2.4-2.9-3.5-6.6-3.3-10.4
		c-0.2-3.7,0.9-7.4,3.3-10.3c2.4-2.5,5.8-3.9,9.3-3.6c3.5-0.2,6.8,1.2,9.1,3.8C195.2,24.5,196.4,28.1,196.2,31.8z M174.5,31.8
		c-0.2,3,0.6,5.9,2.4,8.4c3.7,3.8,9.7,3.9,13.5,0.2c0.1-0.1,0.1-0.1,0.2-0.2c1.7-2.4,2.6-5.4,2.4-8.4c0.2-3-0.7-5.9-2.4-8.3
		c-1.7-2-4.2-3-6.8-2.8c-2.6-0.2-5.2,0.9-6.9,2.9C175.2,25.9,174.3,28.8,174.5,31.8z"/>
	<path class="st0" d="M223.8,31.6c0.3,3.8-1.1,7.5-3.6,10.3c-2.9,2.5-6.7,3.8-10.5,3.5h-7.5V18.2h8.3c3.6-0.2,7.2,1.1,9.9,3.5
		C222.8,24.4,224,28,223.8,31.6z M220.5,31.6c0.2-2.9-0.7-5.8-2.7-8c-2.2-1.9-5-2.9-7.9-2.7h-4.6v21.7h3.9c3.1,0.2,6.1-0.8,8.5-2.8
		c2-2.2,3.1-5.1,2.9-8.1L220.5,31.6z"/>
	<path class="st0" d="M229.7,45.4V18.2h3.2v27.2H229.7z"/>
	<path class="st0" d="M256.2,18.2h3.4l-9.8,27.2h-3.1l-9.8-27.2h3.4l6.2,17.7c0.7,1.9,1.3,3.9,1.7,5.9c0.5-2,1.1-4.1,1.8-6
		L256.2,18.2z"/>
	<path class="st0" d="M278.8,45.4h-15.2V18.2h15.2v2.8h-11.9v8.8h11.3v2.8h-11.3v10h11.9V45.4z"/>
	<path class="st0" d="M287.4,34.1v11.3h-3.2V18.2h7.5c2.6-0.2,5.2,0.5,7.4,1.9c1.7,1.4,2.5,3.6,2.4,5.8c0.2,3.4-2.1,6.5-5.5,7.3
		l7.4,12.2h-3.7l-6.6-11.3L287.4,34.1z M287.4,31.4h4.3c1.7,0.1,3.5-0.3,4.9-1.3c1.1-1,1.7-2.5,1.6-4c0.1-1.5-0.5-2.9-1.6-3.9
		c-1.5-0.9-3.3-1.3-5.1-1.2h-4.1L287.4,31.4z"/>
	<path class="st0" d="M324.1,38.3c0.1,2.2-0.9,4.3-2.6,5.6c-2.1,1.5-4.6,2.2-7.1,2c-2.5,0.1-5.1-0.3-7.4-1.3v-3.1
		c1.2,0.5,2.4,0.9,3.6,1.1c1.3,0.3,2.6,0.4,3.9,0.4c1.7,0.1,3.3-0.3,4.8-1.2c1.1-0.8,1.7-2,1.6-3.3c0-0.8-0.2-1.7-0.6-2.4
		c-0.5-0.7-1.1-1.3-1.9-1.6c-1.3-0.7-2.6-1.3-4-1.7c-2-0.6-3.9-1.7-5.4-3.2c-1.1-1.3-1.7-3-1.6-4.8c-0.1-2,0.8-3.8,2.4-5
		c1.8-1.3,4-2,6.2-1.9c2.6,0,5.1,0.5,7.5,1.5l-1,2.8c-2.1-0.9-4.3-1.4-6.5-1.4c-1.4-0.1-2.8,0.3-3.9,1.1c-0.9,0.7-1.4,1.8-1.4,3
		c0,0.8,0.1,1.6,0.5,2.4c0.4,0.7,1,1.2,1.8,1.6c1.2,0.7,2.5,1.2,3.8,1.7c2.2,0.6,4.2,1.8,5.9,3.3C323.5,35,324.1,36.6,324.1,38.3z"
		/>
	<path class="st0" d="M329.2,45.4V18.2h3.1v27.2H329.2z"/>
	<path class="st0" d="M361.3,31.6c0.3,3.8-1.1,7.5-3.7,10.3c-2.9,2.5-6.7,3.8-10.5,3.5h-7.6V18.2h8.3c3.6-0.2,7.2,1,9.9,3.5
		C360.2,24.4,361.5,28,361.3,31.6z M357.9,31.6c0.2-2.9-0.7-5.8-2.7-8c-2.2-1.9-5-2.9-7.9-2.7h-4.6v21.7h3.9
		c3.1,0.2,6.1-0.8,8.5-2.8c2-2.2,3-5.1,2.8-8.1L357.9,31.6z"/>
	<path class="st0" d="M383.7,45.4l-3.4-8.6h-10.9l-3.4,8.6h-3.2l10.7-27.3h2.7L387,45.4H383.7z M379.3,33.9l-3.2-8.4
		c-0.4-1-0.8-2.4-1.3-3.9c-0.3,1.3-0.7,2.6-1.2,3.9l-3.3,8.4L379.3,33.9z"/>
	<path class="st0" d="M412.8,31.6c0.3,3.8-1.1,7.5-3.7,10.3c-2.9,2.5-6.7,3.8-10.5,3.5h-7.5V18.2h8.3c3.6-0.2,7.2,1,9.9,3.5
		C411.8,24.4,413.1,28,412.8,31.6z M409.5,31.6c0.2-2.9-0.7-5.8-2.7-8c-2.2-1.9-5-2.9-7.9-2.7h-4.6v21.7h3.9
		c3.1,0.2,6.1-0.8,8.5-2.8c2-2.2,3-5.1,2.9-8.1V31.6z"/>
	<path class="st0" d="M152.5,88.2h-15.2V61.1h15.2v2.8h-11.9v8.8h11.3v2.8h-11.4v10h11.9L152.5,88.2z"/>
	<path class="st0" d="M179.3,88.2h-3.6l-14.9-22.8h-0.1c0.2,2.7,0.3,5.1,0.3,7.4v15.4H158V61.1h3.6l14.8,22.7h0.1
		c0-0.3,0-1.4-0.2-3.2c-0.2-1.8,0-3.1,0-3.9V61.1h3L179.3,88.2z"/>
	<path class="st0" d="M207.8,65.5c-2-0.1-3.9,0.8-5,2.4c-1.3,2-1.9,4.4-1.8,6.8c0,6.1,2.3,9.1,6.8,9.1c2.4-0.1,4.7-0.6,6.9-1.4v4.8
		c-2.4,1-4.9,1.4-7.5,1.4c-3.4,0.2-6.7-1.1-9.1-3.6c-2.3-2.9-3.4-6.6-3.1-10.3c0-2.5,0.6-5,1.6-7.3c1-2,2.5-3.6,4.4-4.8
		c2.1-1.2,4.4-1.8,6.8-1.7c2.8,0,5.5,0.7,8,1.9l-1.9,4.8c-1-0.5-2-0.9-3-1.3C210,65.8,208.9,65.6,207.8,65.5z"/>
	<path class="st0" d="M220.4,88.2V61.1h5.8v27.2H220.4z"/>
	<path class="st0" d="M238.5,88.2h-5.7V61.1h15.6v4.8h-9.9V73h9.2v4.8h-9.2V88.2z"/>
	<path class="st0" d="M259,77.8v10.4h-5.8V61.1h7.9c2.9-0.2,5.8,0.5,8.2,2c2.9,2.7,3.5,7.1,1.3,10.4c-1,1.3-2.2,2.3-3.7,2.9
		c4.1,6.1,6.8,10.1,8,11.9h-6.4l-6.5-10.4L259,77.8z M259,73.1h1.9c1.4,0.1,2.8-0.2,4-0.9c0.9-0.7,1.4-1.8,1.3-2.9
		c0.1-1.1-0.4-2.1-1.3-2.7c-1.3-0.6-2.7-0.9-4.1-0.8H259V73.1z"/>
	<path class="st0" d="M297.2,88.2l-2-6.5h-9.9l-2,6.5h-6.2l9.5-27.3h7.1l9.5,27.3H297.2z M293.9,76.9c-1.8-5.9-2.9-9.2-3.1-9.9
		c-0.2-0.8-0.4-1.4-0.5-1.8c-0.4,1.6-1.6,5.5-3.5,11.8H293.9z"/>
	<path class="st0" d="M324,80.7c0.1,2.2-0.9,4.4-2.6,5.8c-2.1,1.5-4.7,2.3-7.4,2.1c-2.7,0.1-5.3-0.5-7.7-1.6v-5.4
		c1.5,0.7,3.1,1.3,4.6,1.8c1.1,0.3,2.3,0.5,3.5,0.5c1,0.1,2-0.2,2.9-0.7c0.7-0.5,1.1-1.3,1-2.1c0-0.5-0.2-1-0.5-1.4
		c-0.4-0.5-0.8-0.9-1.3-1.2c-1.1-0.7-2.3-1.3-3.5-1.9c-1.3-0.6-2.6-1.3-3.7-2.2c-0.8-0.7-1.5-1.6-2-2.5c-0.5-1-0.8-2.2-0.7-3.3
		c-0.1-2.2,0.7-4.3,2.4-5.7c1.9-1.5,4.3-2.2,6.8-2c1.4,0,2.7,0.2,4,0.5c1.4,0.4,2.7,0.8,4,1.4l-1.9,4.5c-1.2-0.5-2.4-0.9-3.6-1.2
		c-0.9-0.2-1.8-0.4-2.8-0.4c-0.9-0.1-1.8,0.2-2.5,0.8c-0.6,0.5-0.9,1.2-0.9,2c0,0.5,0.1,0.9,0.3,1.3c0.3,0.4,0.7,0.8,1.1,1.1
		c1.2,0.7,2.4,1.3,3.6,1.9c2,0.8,3.8,2.1,5.3,3.7C323.6,77.6,324.1,79.2,324,80.7z"/>
	<circle class="st0" cx="85.5" cy="20.9" r="12.4"/>
	<circle class="st0" cx="50.3" cy="56.1" r="12.4"/>
	<path class="st0" d="M50.3,33.5c-12.6,0-22.7,10.2-22.7,22.7C27.6,68.8,37.8,79,50.3,79c6.9,0,12.5,5.5,12.5,12.4
		c0,6.9-5.5,12.5-12.4,12.5c-6.9,0-12.5-5.5-12.5-12.4c0,0,0,0,0,0c0-12.6-10.2-22.8-22.8-22.8l0,0c-6.9,0-12.4-5.6-12.4-12.4
		c0,0,0-0.1,0-0.1l0,0c0-6.9,5.6-12.4,12.4-12.4l0,0c12.6,0,22.8-10.2,22.8-22.8C38,14.1,43.6,8.6,50.5,8.7
		c6.9,0.1,12.4,5.7,12.3,12.6C62.7,28,57.2,33.5,50.3,33.5z"/>
</g>
</svg>
