<svg xmlns="http://www.w3.org/2000/svg" viewBox="0 0 198.16 99.11"><defs><style>.cls-1{fill:#fff;}</style></defs><title>logo-sib</title><g id="Layer_2" data-name="Layer 2"><g id="cont"><path class="cls-1" d="M2.27,37.3c6,22.25,18.52,43.85,35.41,59.52A122.4,122.4,0,0,0,91.4,68a7.82,7.82,0,0,1-.92-.9h0a15.33,15.33,0,0,0-9.27-4.15c-6.51-.44-15,9.26-15,9.26h0a27.14,27.14,0,1,1,3.62-29.31h0s5.89,12.2,12.24,13.37a15.94,15.94,0,0,0,10.16-1.81h0a8.5,8.5,0,0,1,2.11-1A129,129,0,0,0,63.05,2.28,134.41,134.41,0,0,0,2.27,37.3ZM65.57,15A6.55,6.55,0,1,1,59,8.41,6.54,6.54,0,0,1,65.57,15Z"/><path class="cls-1" d="M89.22,30.8c.77,2.86,1.46,5.75,2,8.65,1.69,3.76,3.2,7.59,4.5,11.46q1.84-4.2,3.33-8.49A115.28,115.28,0,0,0,89.22,30.8Z"/><path class="cls-1" d="M51.16,3.74Q46.8,1.7,42.33,0A128.63,128.63,0,0,0,30.6,10.48q4.93-1.38,10-2.41Q45.79,5.67,51.16,3.74Z"/><path class="cls-1" d="M49.11,95.71C52,97,55,98.11,58,99.11A116.51,116.51,0,0,0,70.18,88.4q-4.35,1.3-8.78,2.3A122.71,122.71,0,0,1,49.11,95.71Z"/><path class="cls-1" d="M3.79,49c-1.39,3-2.65,6-3.79,9.09A130.57,130.57,0,0,0,11.23,70.35c-1-3.32-1.93-6.69-2.69-10.09Q5.9,54.74,3.79,49Z"/><path class="cls-1" d="M22.23,91.07c2.41.24,4.84.41,7.27.5A127.76,127.76,0,0,1,13,68.75,118.87,118.87,0,0,0,22.23,91.07Z"/><path class="cls-1" d="M91,77.61q.39-3.39.56-6.83A124.37,124.37,0,0,1,70.08,86.21,117.45,117.45,0,0,0,91,77.61Z"/><path class="cls-1" d="M7.76,21.57q-.28,4-.32,8A137.38,137.38,0,0,1,32.35,12.22,131.58,131.58,0,0,0,7.76,21.57Z"/><path class="cls-1" d="M78.35,7.89q-3.73-.32-7.52-.4A132.77,132.77,0,0,1,87.09,31,129,129,0,0,0,78.35,7.89Z"/><path class="cls-1" d="M31.91,56A13.56,13.56,0,1,1,46.66,68.23,13.56,13.56,0,0,1,31.91,56Z"/><path class="cls-1" d="M92.62,61.89a4.22,4.22,0,1,1,4.59,3.81A4.23,4.23,0,0,1,92.62,61.89Z"/><path class="cls-1" d="M55.75,15A3.28,3.28,0,1,1,59,18.23,3.28,3.28,0,0,1,55.75,15Z"/><path class="cls-1" d="M124.61,36.36c-7-3.22-9.9-5.1-9.9-9.22,0-3.23,2.62-6.38,8.47-6.38a22.22,22.22,0,0,1,10.28,2.48l2.32-9.07a27.9,27.9,0,0,0-12.37-2.63c-12.45,0-19.87,7.27-19.87,16.72,0,7.5,5.4,12.9,14.09,16.65,6.38,2.77,9.15,5.25,9.15,9.37s-3.22,7.2-9.37,7.2A25.86,25.86,0,0,1,105,58.25v.07a8.35,8.35,0,0,1,.63,3.21A8.45,8.45,0,0,1,103,67.65c2.76,1.61,8.41,3.12,14,3.12,13.42,0,21-7.34,21-17.39C138,45.81,133.83,40.48,124.61,36.36Z"/><path class="cls-1" d="M147.55,10.94a5.71,5.71,0,0,0-5.92,5.93,6,6,0,0,0,11.92,0A5.69,5.69,0,0,0,147.55,10.94Z"/><rect class="cls-1" x="142.08" y="28.26" width="11.1" height="41.76"/><path class="cls-1" d="M186.91,39.21v-.3c6.15-2.33,9.22-7.2,9.22-12.45a12.75,12.75,0,0,0-5.62-10.87c-4-2.77-8.92-3.67-15.89-3.67A81.79,81.79,0,0,0,160,13.12V69.8a89.92,89.92,0,0,0,12.3.75c10.27,0,16.72-1.87,20.62-5.4a15.87,15.87,0,0,0,5.25-11.85C198.16,46,193.36,40.86,186.91,39.21ZM171,20.54a22.33,22.33,0,0,1,4.87-.38c5,0,9.22,1.88,9.22,7.58,0,4.72-3.75,8.09-10,8.09h-4Zm4.42,41.69a23.33,23.33,0,0,1-4.42-.3v-18h4.12c5.7,0,11.4,2.4,11.4,9.08C186.54,59.53,181.44,62.23,175.44,62.23Z"/><path class="cls-1" d="M116.32,78.23a4.33,4.33,0,0,0-3.88,2.59A14.76,14.76,0,0,0,111,88a17.79,17.79,0,0,0,.67,5.18,7.58,7.58,0,0,0,1.91,3.39,4,4,0,0,0,2.88,1.18,6.31,6.31,0,0,0,2.9-.61v1.34a6.05,6.05,0,0,1-3,.66,5.33,5.33,0,0,1-3.6-1.33,8.5,8.5,0,0,1-2.39-3.85,19.06,19.06,0,0,1-.85-6,15.33,15.33,0,0,1,1.85-8.14,5.66,5.66,0,0,1,5-3,6.43,6.43,0,0,1,3.46.92L119.15,79A5.14,5.14,0,0,0,116.32,78.23Z"/><path class="cls-1" d="M130.59,90.75A12.32,12.32,0,0,1,129.31,97a4,4,0,0,1-3.66,2.15,3.93,3.93,0,0,1-3.6-2.15,12.46,12.46,0,0,1-1.25-6.21q0-8.3,4.91-8.3a4,4,0,0,1,3.59,2.18A12.06,12.06,0,0,1,130.59,90.75Zm-8.33,0a13,13,0,0,0,.83,5.26,2.71,2.71,0,0,0,2.59,1.77q3.45,0,3.45-7c0-4.64-1.15-7-3.45-7a2.69,2.69,0,0,0-2.61,1.75A12.91,12.91,0,0,0,122.26,90.75Z"/><path class="cls-1" d="M134.64,98.82h-1.41v-23h1.41Z"/><path class="cls-1" d="M147.12,90.75A12.21,12.21,0,0,1,145.84,97a4,4,0,0,1-3.66,2.15,3.93,3.93,0,0,1-3.6-2.15,12.45,12.45,0,0,1-1.26-6.21q0-8.3,4.92-8.3a4,4,0,0,1,3.59,2.18A12.06,12.06,0,0,1,147.12,90.75Zm-8.33,0a12.83,12.83,0,0,0,.83,5.26,2.71,2.71,0,0,0,2.59,1.77q3.45,0,3.45-7c0-4.64-1.15-7-3.45-7a2.7,2.7,0,0,0-2.61,1.75A12.91,12.91,0,0,0,138.79,90.75Z"/><path class="cls-1" d="M163.38,98.82V87.88q0-4-2.36-4a2.45,2.45,0,0,0-2.35,1.41,9.49,9.49,0,0,0-.72,4.17v9.4h-1.39V87.88a6.2,6.2,0,0,0-.58-3,1.91,1.91,0,0,0-1.79-1,2.43,2.43,0,0,0-2.32,1.45,11.32,11.32,0,0,0-.72,4.71v8.82h-1.41V82.76h1.18L151,85h.14a3.37,3.37,0,0,1,3.27-2.55,3,3,0,0,1,2.1.71,4.15,4.15,0,0,1,1.11,2.07,4.9,4.9,0,0,1,1.42-2.13,3.5,3.5,0,0,1,2.19-.65,2.88,2.88,0,0,1,2.66,1.4,9,9,0,0,1,.84,4.48V98.82Z"/><path class="cls-1" d="M172.94,82.48q4.71,0,4.71,8.27A13.22,13.22,0,0,1,176.48,97a3.67,3.67,0,0,1-3.37,2.14,3.74,3.74,0,0,1-2.11-.63,4.75,4.75,0,0,1-1.56-1.88h-.12l-.2,2.22H168v-23h1.4v7.15l-.05,1.94h.12A3.86,3.86,0,0,1,172.94,82.48Zm-.06,1.3a2.82,2.82,0,0,0-2.68,1.63,12.6,12.6,0,0,0-.83,5.34v.37q0,6.72,3.57,6.72a2.6,2.6,0,0,0,2.44-1.73,13.56,13.56,0,0,0,.8-5.36,13.36,13.36,0,0,0-.78-5.22A2.62,2.62,0,0,0,172.88,83.78Z"/><path class="cls-1" d="M181.7,98.82h-1.41V82.76h1.41Z"/><path class="cls-1" d="M191.15,98.82,191,96.57h-.06a3.72,3.72,0,0,1-3.49,2.54,3,3,0,0,1-2.52-1.25,5.35,5.35,0,0,1-1-3.35,4.82,4.82,0,0,1,1.38-3.63,5.73,5.73,0,0,1,3.86-1.46l1.73-.09V88a7.26,7.26,0,0,0-.56-3.28,2,2,0,0,0-1.87-1,5.24,5.24,0,0,0-2.81.91l-.6-1.11a6.54,6.54,0,0,1,3.5-1,3.24,3.24,0,0,1,2.86,1.25,7.57,7.57,0,0,1,.87,4.18V98.82Zm-3.42-.91a2.58,2.58,0,0,0,2.35-1.48,8.79,8.79,0,0,0,.83-4.21V90.54l-1.67.09a4.18,4.18,0,0,0-2.88,1.08,3.88,3.88,0,0,0-.94,2.83A4.27,4.27,0,0,0,186,97.1,2,2,0,0,0,187.73,97.91Z"/><path class="cls-1" d="M182.14,76.94A1.15,1.15,0,1,1,181,75.79,1.15,1.15,0,0,1,182.14,76.94Z"/></g></g></svg>