<svg id="Capa_1" data-name="Capa 1" xmlns="http://www.w3.org/2000/svg" viewBox="0 0 240 70"><defs><style>.cls-1{fill:#ffffff;}</style></defs><title>logo-</title><path class="cls-1" d="M92.35,21.12a2.47,2.47,0,0,0-2.12,1A4.78,4.78,0,0,0,89.49,25q0,3.82,2.87,3.82a9.06,9.06,0,0,0,2.91-.6v2a8.09,8.09,0,0,1-3.14.59,4.79,4.79,0,0,1-3.81-1.51A6.4,6.4,0,0,1,87,25a7.08,7.08,0,0,1,.65-3.12,4.69,4.69,0,0,1,1.86-2.05,5.51,5.51,0,0,1,2.85-.71,7.69,7.69,0,0,1,3.34.8l-.78,2a13,13,0,0,0-1.29-.53A3.84,3.84,0,0,0,92.35,21.12Z"/><path class="cls-1" d="M107.75,25a6.2,6.2,0,0,1-1.41,4.36,6.1,6.1,0,0,1-8.06,0,6.22,6.22,0,0,1-1.41-4.37,6.14,6.14,0,0,1,1.41-4.36,5.27,5.27,0,0,1,4-1.5,5.2,5.2,0,0,1,4,1.52A6.21,6.21,0,0,1,107.75,25Zm-8.34,0a4.77,4.77,0,0,0,.73,2.88,2.54,2.54,0,0,0,2.17,1q2.9,0,2.9-3.85t-2.88-3.86a2.56,2.56,0,0,0-2.18,1A4.75,4.75,0,0,0,99.41,25Z"/><path class="cls-1" d="M110.07,30.69V19.27h2.42v9.42h4.63v2Z"/><path class="cls-1" d="M125.6,30.69H119V19.27h6.58v2h-4.16v2.51h3.87v2h-3.87v2.95h4.16Z"/><path class="cls-1" d="M132.72,21.12a2.47,2.47,0,0,0-2.12,1,4.78,4.78,0,0,0-.75,2.86q0,3.82,2.87,3.82a9.06,9.06,0,0,0,2.91-.6v2a8.09,8.09,0,0,1-3.14.59,4.79,4.79,0,0,1-3.81-1.51A6.4,6.4,0,0,1,127.36,25a7.08,7.08,0,0,1,.65-3.12,4.69,4.69,0,0,1,1.86-2.05,5.51,5.51,0,0,1,2.85-.71,7.69,7.69,0,0,1,3.34.8l-.78,2a13,13,0,0,0-1.29-.53A3.84,3.84,0,0,0,132.72,21.12Z"/><path class="cls-1" d="M142.61,21.12a2.47,2.47,0,0,0-2.12,1,4.78,4.78,0,0,0-.75,2.86q0,3.82,2.87,3.82a9.06,9.06,0,0,0,2.91-.6v2a8.09,8.09,0,0,1-3.14.59,4.79,4.79,0,0,1-3.81-1.51A6.4,6.4,0,0,1,137.25,25a7.08,7.08,0,0,1,.65-3.12,4.69,4.69,0,0,1,1.86-2.05,5.51,5.51,0,0,1,2.85-.71,7.69,7.69,0,0,1,3.34.8l-.78,2a13,13,0,0,0-1.29-.53A3.84,3.84,0,0,0,142.61,21.12Z"/><path class="cls-1" d="M147.87,30.69V19.27h2.42V30.69Z"/><path class="cls-1" d="M163.51,25a6.2,6.2,0,0,1-1.41,4.36,6.1,6.1,0,0,1-8.06,0,6.22,6.22,0,0,1-1.41-4.37A6.14,6.14,0,0,1,154,20.59a5.27,5.27,0,0,1,4-1.5,5.2,5.2,0,0,1,4,1.52A6.21,6.21,0,0,1,163.51,25Zm-8.34,0a4.77,4.77,0,0,0,.73,2.88,2.54,2.54,0,0,0,2.17,1q2.9,0,2.9-3.85t-2.88-3.86a2.56,2.56,0,0,0-2.18,1A4.75,4.75,0,0,0,155.17,25Z"/><path class="cls-1" d="M176,30.69h-3.08l-5-8.64h-.07q.15,2.29.15,3.27v5.38h-2.16V19.27h3.05l5,8.55h.05q-.12-2.23-.12-3.15V19.27H176Z"/><path class="cls-1" d="M185.36,30.69h-6.58V19.27h6.58v2H181.2v2.51h3.87v2H181.2v2.95h4.16Z"/><path class="cls-1" d="M194.63,27.52A3,3,0,0,1,193.51,30a4.84,4.84,0,0,1-3.1.89,7.28,7.28,0,0,1-3.23-.69V27.91a13.3,13.3,0,0,0,2,.73,5.8,5.8,0,0,0,1.46.21,2.08,2.08,0,0,0,1.22-.3,1,1,0,0,0,.43-.91,1,1,0,0,0-.19-.6,2.09,2.09,0,0,0-.55-.5,14.26,14.26,0,0,0-1.48-.77,7,7,0,0,1-1.57-.95,3.54,3.54,0,0,1-.84-1.05,3,3,0,0,1-.31-1.41,3,3,0,0,1,1-2.38,4.27,4.27,0,0,1,2.84-.87,6.71,6.71,0,0,1,1.7.21,11.73,11.73,0,0,1,1.69.59l-.78,1.88a11.38,11.38,0,0,0-1.51-.52,4.88,4.88,0,0,0-1.18-.15,1.56,1.56,0,0,0-1.05.32,1.06,1.06,0,0,0-.37.84,1,1,0,0,0,.15.56,1.63,1.63,0,0,0,.47.46,14.61,14.61,0,0,0,1.54.8,6.12,6.12,0,0,1,2.2,1.54A3,3,0,0,1,194.63,27.52Z"/><path class="cls-1" d="M94,48.69H87.63V37.27H94v1.18H89v3.68H93.7V43.3H89v4.2h5Z"/><path class="cls-1" d="M105.22,48.69h-1.52L97.46,39.1H97.4q.12,1.69.13,3.09v6.49H96.3V37.27h1.5L104,46.81h.06q0-.21-.07-1.36t0-1.64V37.27h1.24Z"/><path class="cls-1" d="M112.52,48.69V37.27h1.33V47.48h5v1.2Z"/><path class="cls-1" d="M120.64,36.16q.38-.48.81-1.17a13.4,13.4,0,0,0,.68-1.2h1.58V34a14.47,14.47,0,0,1-2.2,2.4h-.87Zm.17,12.53V37.27h1.33V48.69Z"/><path class="cls-1" d="M134.1,48.69h-1.52l-6.24-9.59h-.06q.12,1.69.13,3.09v6.49h-1.23V37.27h1.5l6.23,9.55H133q0-.21-.07-1.36t0-1.64V37.27h1.24Z"/><path class="cls-1" d="M143.49,48.69h-6.37V37.27h6.37v1.18h-5v3.68h4.73V43.3h-4.73v4.2h5Z"/><path class="cls-1" d="M153.68,48.69l-1.42-3.63h-4.58l-1.41,3.63h-1.34l4.52-11.47h1.12l4.49,11.47Zm-1.84-4.83-1.33-3.54q-.26-.67-.53-1.65a14.65,14.65,0,0,1-.49,1.65l-1.34,3.54Z"/><g id="_Grupo_" data-name="&lt;Grupo&gt;"><circle id="_Trazado_" data-name="&lt;Trazado&gt;" class="cls-1" cx="35" cy="20.22" r="5.22"/><path id="_Trazado_2" data-name="&lt;Trazado&gt;" class="cls-1" d="M44.55,35a9.55,9.55,0,1,1-19.1,0,5.22,5.22,0,1,0-5.22,5.22,9.55,9.55,0,0,1,9.55,9.55h0A5.22,5.22,0,0,0,35,55h0a5.22,5.22,0,0,0,5.22-5.22h0a9.55,9.55,0,0,1,9.55-9.55A5.22,5.22,0,1,0,44.55,35Z"/></g></svg>