<svg xmlns="http://www.w3.org/2000/svg" viewBox="0 0 195.71 40"><defs><style>.cls-1{fill:#fff;}</style></defs><title>logo-catalogo</title><g id="Layer_2" data-name="Layer 2"><g id="Lineamientos"><path class="cls-1" d="M61.29,6.71a2.46,2.46,0,0,0-2.12,1,4.77,4.77,0,0,0-.75,2.86q0,3.83,2.87,3.82a9.07,9.07,0,0,0,2.91-.6v2a8.06,8.06,0,0,1-3.14.59,4.78,4.78,0,0,1-3.81-1.52,6.38,6.38,0,0,1-1.32-4.34,7.16,7.16,0,0,1,.65-3.12,4.69,4.69,0,0,1,1.86-2,5.49,5.49,0,0,1,2.85-.72,7.63,7.63,0,0,1,3.34.81l-.78,2a10.94,10.94,0,0,0-1.29-.53A3.59,3.59,0,0,0,61.29,6.71Z"/><path class="cls-1" d="M74,16.28l-.83-2.72H69l-.82,2.72H65.59l4-11.47h3l4,11.47Zm-1.41-4.75c-.77-2.46-1.2-3.86-1.29-4.18s-.17-.58-.21-.77q-.26,1-1.48,4.95Z"/><path class="cls-1" d="M81.66,16.28H79.24V6.87h-3.1v-2h8.62v2h-3.1Z"/><path class="cls-1" d="M92.71,16.28l-.83-2.72H87.71l-.82,2.72H84.28l4-11.47h3l4,11.47ZM91.3,11.53C90.54,9.07,90.1,7.67,90,7.35s-.17-.58-.21-.77q-.26,1-1.48,4.95ZM88.5,3.94V3.73a21.33,21.33,0,0,0,1.84-2.35H93v.17q-.41.41-1.38,1.2c-.66.54-1.17.93-1.54,1.19Z"/><path class="cls-1" d="M97,16.28V4.86h2.42v9.42H104v2Z"/><path class="cls-1" d="M116.13,10.55a6.22,6.22,0,0,1-1.4,4.36,6.09,6.09,0,0,1-8.07,0,6.23,6.23,0,0,1-1.4-4.37,6.16,6.16,0,0,1,1.41-4.36,5.28,5.28,0,0,1,4-1.5,5.21,5.21,0,0,1,4,1.51A6.22,6.22,0,0,1,116.13,10.55Zm-8.33,0a4.83,4.83,0,0,0,.72,2.89,2.56,2.56,0,0,0,2.17,1c1.94,0,2.9-1.28,2.9-3.85s-1-3.86-2.88-3.86a2.57,2.57,0,0,0-2.18,1A4.72,4.72,0,0,0,107.8,10.55Z"/><path class="cls-1" d="M122.81,9.87h4.53v5.92a12.89,12.89,0,0,1-2.07.5,13,13,0,0,1-2,.15,5,5,0,0,1-4-1.52A6.34,6.34,0,0,1,118,10.55a5.73,5.73,0,0,1,1.58-4.31,6,6,0,0,1,4.38-1.55,8.49,8.49,0,0,1,3.4.71l-.81,1.93a5.82,5.82,0,0,0-2.6-.62,3.22,3.22,0,0,0-2.52,1,4.11,4.11,0,0,0-.94,2.84,4.53,4.53,0,0,0,.76,2.84,2.65,2.65,0,0,0,2.21,1,7.39,7.39,0,0,0,1.54-.16V11.88h-2.16Z"/><path class="cls-1" d="M140.34,10.55a6.18,6.18,0,0,1-1.41,4.36,6.07,6.07,0,0,1-8.06,0,6.19,6.19,0,0,1-1.41-4.37,6.16,6.16,0,0,1,1.41-4.36,5.29,5.29,0,0,1,4-1.5,5.19,5.19,0,0,1,4,1.51A6.22,6.22,0,0,1,140.34,10.55Zm-8.34,0a4.76,4.76,0,0,0,.73,2.89,2.55,2.55,0,0,0,2.17,1q2.9,0,2.9-3.85t-2.88-3.86a2.55,2.55,0,0,0-2.18,1A4.72,4.72,0,0,0,132,10.55Z"/><path class="cls-1" d="M156.11,10.46a5.75,5.75,0,0,1-1.53,4.32,6.08,6.08,0,0,1-4.42,1.5H147V4.86h3.5a5.6,5.6,0,0,1,4.14,1.47A5.57,5.57,0,0,1,156.11,10.46Zm-1.4,0a4.59,4.59,0,0,0-1.13-3.37A4.45,4.45,0,0,0,150.25,6h-1.93v9.12h1.62A4.92,4.92,0,0,0,153.51,14,4.59,4.59,0,0,0,154.71,10.51Z"/><path class="cls-1" d="M164.94,16.28h-6.36V4.86h6.36V6h-5V9.72h4.73v1.17h-4.73v4.2h5Z"/><path class="cls-1" d="M56.57,34.28V22.86H57.9V33.08h5v1.2Z"/><path class="cls-1" d="M72.83,34.28l-1.42-3.63H66.83l-1.4,3.63H64.08L68.6,22.81h1.11l4.5,11.47ZM71,29.45l-1.33-3.54c-.17-.45-.35-1-.53-1.65a14.82,14.82,0,0,1-.5,1.65L67.3,29.45Z"/><path class="cls-1" d="M79.93,22.86h3.23a6,6,0,0,1,3.29.68,2.39,2.39,0,0,1,1,2.15,2.46,2.46,0,0,1-.56,1.67,2.74,2.74,0,0,1-1.65.86v.08c1.73.29,2.6,1.2,2.6,2.73a2.94,2.94,0,0,1-1,2.39,4.41,4.41,0,0,1-2.89.86h-4Zm1.33,4.89h2.19a3.58,3.58,0,0,0,2-.44,1.72,1.72,0,0,0,.62-1.49,1.52,1.52,0,0,0-.69-1.39A4.36,4.36,0,0,0,83.21,24H81.26Zm0,1.12v4.28h2.38a3.39,3.39,0,0,0,2.09-.54,2,2,0,0,0,.7-1.67,1.79,1.79,0,0,0-.72-1.57,3.84,3.84,0,0,0-2.17-.5Z"/><path class="cls-1" d="M90.29,34.28V22.86h1.33V34.28Z"/><path class="cls-1" d="M104.64,28.55a6.33,6.33,0,0,1-1.39,4.32,5.59,5.59,0,0,1-7.75,0,6.36,6.36,0,0,1-1.37-4.35,6.32,6.32,0,0,1,1.37-4.33,5,5,0,0,1,3.91-1.53,4.86,4.86,0,0,1,3.84,1.56A6.29,6.29,0,0,1,104.64,28.55Zm-9.11,0a5.41,5.41,0,0,0,1,3.52,4,4,0,0,0,5.74,0,5.5,5.5,0,0,0,1-3.53,5.4,5.4,0,0,0-1-3.49,3.43,3.43,0,0,0-2.85-1.19,3.55,3.55,0,0,0-2.89,1.19A5.38,5.38,0,0,0,95.53,28.55Z"/><path class="cls-1" d="M116.25,28.46a5.71,5.71,0,0,1-1.54,4.32,6.05,6.05,0,0,1-4.42,1.5h-3.16V22.86h3.5a5.6,5.6,0,0,1,4.14,1.47A5.61,5.61,0,0,1,116.25,28.46Zm-1.41.05a4.59,4.59,0,0,0-1.12-3.37A4.48,4.48,0,0,0,110.39,24h-1.93v9.12h1.62A4.92,4.92,0,0,0,113.65,32,4.63,4.63,0,0,0,114.84,28.51Z"/><path class="cls-1" d="M118.7,34.28V22.86H120V34.28Z"/><path class="cls-1" d="M129.87,22.86h1.43l-4.12,11.42h-1.31l-4.1-11.42h1.41l2.62,7.39a21.37,21.37,0,0,1,.72,2.48,19.65,19.65,0,0,1,.74-2.53Z"/><path class="cls-1" d="M139.41,34.28H133V22.86h6.37V24h-5v3.68h4.73v1.17h-4.73v4.2h5Z"/><path class="cls-1" d="M143,29.53v4.75h-1.32V22.86h3.13a4.94,4.94,0,0,1,3.1.8,2.93,2.93,0,0,1,1,2.42,3,3,0,0,1-2.3,3.07l3.1,5.13h-1.57l-2.76-4.75Zm0-1.14h1.82a3.18,3.18,0,0,0,2.07-.56,2.1,2.1,0,0,0,.65-1.68,1.91,1.91,0,0,0-.66-1.63,3.66,3.66,0,0,0-2.15-.5H143Z"/><path class="cls-1" d="M158.41,31.24a2.79,2.79,0,0,1-1.1,2.35,4.71,4.71,0,0,1-3,.85,7.42,7.42,0,0,1-3.13-.53V32.63a7.81,7.81,0,0,0,1.53.47,8.38,8.38,0,0,0,1.64.17,3.35,3.35,0,0,0,2-.5,1.66,1.66,0,0,0,.67-1.4,1.82,1.82,0,0,0-.23-1,2.35,2.35,0,0,0-.8-.7,11.47,11.47,0,0,0-1.7-.72,5.49,5.49,0,0,1-2.28-1.35,3,3,0,0,1-.68-2,2.53,2.53,0,0,1,1-2.1,4.08,4.08,0,0,1,2.63-.79,7.68,7.68,0,0,1,3.13.63l-.41,1.16a7,7,0,0,0-2.75-.6,2.65,2.65,0,0,0-1.65.45,1.51,1.51,0,0,0-.6,1.26,2,2,0,0,0,.22,1,2,2,0,0,0,.74.7,9.92,9.92,0,0,0,1.59.7,6.42,6.42,0,0,1,2.47,1.37A2.72,2.72,0,0,1,158.41,31.24Z"/><path class="cls-1" d="M160.59,34.28V22.86h1.33V34.28Z"/><path class="cls-1" d="M174.06,28.46a5.71,5.71,0,0,1-1.54,4.32,6,6,0,0,1-4.41,1.5h-3.17V22.86h3.5a5.6,5.6,0,0,1,4.14,1.47A5.57,5.57,0,0,1,174.06,28.46Zm-1.41.05a4.59,4.59,0,0,0-1.12-3.37A4.48,4.48,0,0,0,168.2,24h-1.93v9.12h1.62A4.92,4.92,0,0,0,171.46,32,4.63,4.63,0,0,0,172.65,28.51Z"/><path class="cls-1" d="M183.48,34.28l-1.43-3.63h-4.57l-1.41,3.63h-1.34l4.51-11.47h1.12l4.49,11.47Zm-1.84-4.83-1.33-3.54c-.17-.45-.35-1-.53-1.65a14.62,14.62,0,0,1-.49,1.65l-1.35,3.54Z"/><path class="cls-1" d="M195.71,28.46a5.75,5.75,0,0,1-1.54,4.32,6.07,6.07,0,0,1-4.42,1.5h-3.16V22.86h3.5a5.6,5.6,0,0,1,4.14,1.47A5.61,5.61,0,0,1,195.71,28.46Zm-1.41.05a4.59,4.59,0,0,0-1.12-3.37A4.48,4.48,0,0,0,189.85,24h-1.93v9.12h1.61A4.89,4.89,0,0,0,193.1,32,4.59,4.59,0,0,0,194.3,28.51Z"/><path class="cls-1" d="M34.78,14.78h0a9.56,9.56,0,0,1-9.56-9.56A5.22,5.22,0,0,0,20,0h0a5.22,5.22,0,0,0-5.22,5.22,9.56,9.56,0,0,1-9.56,9.56h0a5.22,5.22,0,0,0,0,10.44h0a9.56,9.56,0,0,1,9.56,9.56A5.22,5.22,0,0,0,20,40h0a5.22,5.22,0,0,0,5.22-5.22,9.56,9.56,0,0,1,9.56-9.56h0a5.22,5.22,0,0,0,0-10.44ZM20,29.55A9.55,9.55,0,1,1,29.55,20,9.54,9.54,0,0,1,20,29.55Z"/><circle id="_Ellipse_" data-name="&lt;Ellipse&gt;" class="cls-1" cx="34.78" cy="5.22" r="5.22"/></g></g></svg>