<svg xmlns="http://www.w3.org/2000/svg" viewBox="0 0 163.56 40"><defs><style>.cls-1{fill:#fff;}</style></defs><title>logo-colecciones</title><g id="Layer_2" data-name="Layer 2"><g id="Lineamientos"><path class="cls-1" d="M61.29,6.12a2.46,2.46,0,0,0-2.12,1A4.75,4.75,0,0,0,58.42,10q0,3.83,2.87,3.82a9.07,9.07,0,0,0,2.91-.6v2a8.06,8.06,0,0,1-3.14.58,4.78,4.78,0,0,1-3.81-1.51A6.4,6.4,0,0,1,55.93,10a7.13,7.13,0,0,1,.65-3.12,4.64,4.64,0,0,1,1.86-2,5.49,5.49,0,0,1,2.85-.72,7.63,7.63,0,0,1,3.34.81l-.78,2a11,11,0,0,0-1.29-.54A3.82,3.82,0,0,0,61.29,6.12Z"/><path class="cls-1" d="M76.68,10a6.22,6.22,0,0,1-1.4,4.36,6.12,6.12,0,0,1-8.07,0A6.23,6.23,0,0,1,65.81,10a6.13,6.13,0,0,1,1.41-4.36,5.27,5.27,0,0,1,4-1.5,5.21,5.21,0,0,1,4,1.51A6.22,6.22,0,0,1,76.68,10Zm-8.33,0a4.77,4.77,0,0,0,.72,2.88,2.54,2.54,0,0,0,2.17,1c1.94,0,2.9-1.28,2.9-3.85s-1-3.86-2.88-3.86a2.59,2.59,0,0,0-2.18,1A4.76,4.76,0,0,0,68.35,10Z"/><path class="cls-1" d="M79,15.69V4.27h2.43v9.42h4.63v2Z"/><path class="cls-1" d="M94.54,15.69H88V4.27h6.58v2H90.38V8.76h3.87v2H90.38v2.95h4.16Z"/><path class="cls-1" d="M101.66,6.12a2.45,2.45,0,0,0-2.12,1A4.75,4.75,0,0,0,98.79,10c0,2.55.95,3.82,2.87,3.82a9.07,9.07,0,0,0,2.91-.6v2a8.1,8.1,0,0,1-3.14.58,4.78,4.78,0,0,1-3.81-1.51A6.4,6.4,0,0,1,96.3,10a7.13,7.13,0,0,1,.64-3.12,4.72,4.72,0,0,1,1.87-2,5.49,5.49,0,0,1,2.85-.72,7.66,7.66,0,0,1,3.34.81l-.78,2a11.79,11.79,0,0,0-1.29-.54A3.86,3.86,0,0,0,101.66,6.12Z"/><path class="cls-1" d="M111.55,6.12a2.46,2.46,0,0,0-2.12,1,4.75,4.75,0,0,0-.75,2.86q0,3.83,2.87,3.82a9.07,9.07,0,0,0,2.91-.6v2a8.06,8.06,0,0,1-3.14.58,4.78,4.78,0,0,1-3.81-1.51A6.4,6.4,0,0,1,106.19,10a7.13,7.13,0,0,1,.65-3.12,4.64,4.64,0,0,1,1.86-2,5.49,5.49,0,0,1,2.85-.72,7.63,7.63,0,0,1,3.34.81l-.78,2a11.79,11.79,0,0,0-1.29-.54A3.82,3.82,0,0,0,111.55,6.12Z"/><path class="cls-1" d="M116.81,15.69V4.27h2.42V15.69Z"/><path class="cls-1" d="M132.44,10a6.18,6.18,0,0,1-1.4,4.36,6.1,6.1,0,0,1-8.06,0A6.19,6.19,0,0,1,121.57,10,6.13,6.13,0,0,1,123,5.59a5.28,5.28,0,0,1,4-1.5,5.2,5.2,0,0,1,4,1.51A6.22,6.22,0,0,1,132.44,10Zm-8.33,0a4.7,4.7,0,0,0,.73,2.88,2.52,2.52,0,0,0,2.17,1q2.89,0,2.9-3.85c0-2.57-1-3.86-2.89-3.86a2.59,2.59,0,0,0-2.18,1A4.76,4.76,0,0,0,124.11,10Z"/><path class="cls-1" d="M144.9,15.69h-3.08l-5-8.64h-.07c.1,1.52.15,2.61.15,3.26v5.38h-2.16V4.27h3l5,8.55h.06q-.12-2.22-.12-3.15V4.27h2.18Z"/><path class="cls-1" d="M154.29,15.69h-6.58V4.27h6.58v2h-4.15V8.76H154v2h-3.86v2.95h4.15Z"/><path class="cls-1" d="M163.56,12.52A2.94,2.94,0,0,1,162.45,15a4.81,4.81,0,0,1-3.1.89,7.34,7.34,0,0,1-3.23-.68V12.91a13.65,13.65,0,0,0,1.95.72,5.85,5.85,0,0,0,1.47.21,2.09,2.09,0,0,0,1.22-.3,1.06,1.06,0,0,0,.43-.91A1,1,0,0,0,161,12a2.1,2.1,0,0,0-.55-.51,14.07,14.07,0,0,0-1.48-.77,7.13,7.13,0,0,1-1.57-.95,3.54,3.54,0,0,1-.84-1.05,3,3,0,0,1-.31-1.41,2.94,2.94,0,0,1,1-2.38,4.25,4.25,0,0,1,2.84-.87,6.63,6.63,0,0,1,1.69.21,11.23,11.23,0,0,1,1.7.6l-.79,1.88a9.76,9.76,0,0,0-1.51-.52A4.82,4.82,0,0,0,160,6.12a1.54,1.54,0,0,0-1.06.32,1.05,1.05,0,0,0-.36.83,1.11,1.11,0,0,0,.14.56,1.52,1.52,0,0,0,.48.46,12.38,12.38,0,0,0,1.53.8,6.18,6.18,0,0,1,2.2,1.54A3,3,0,0,1,163.56,12.52Z"/><path class="cls-1" d="M62.94,33.69H56.57V22.27h6.37v1.18h-5v3.68h4.73V28.3H57.9v4.2h5Z"/><path class="cls-1" d="M74.16,33.69H72.64L66.4,24.1h-.06c.08,1.13.12,2.16.12,3.1v6.49H65.24V22.27h1.5L73,31.81H73c0-.14,0-.59-.07-1.35s0-1.31,0-1.64V22.27h1.24Z"/><path class="cls-1" d="M81.45,33.69V22.27h1.33V32.49h5v1.2Z"/><path class="cls-1" d="M89.58,21.16c.25-.33.51-.72.8-1.17s.52-.86.69-1.2h1.58V19a10.51,10.51,0,0,1-1,1.25,10.19,10.19,0,0,1-1.18,1.15h-.86Zm.17,12.53V22.27h1.33V33.69Z"/><path class="cls-1" d="M103,33.69h-1.51L95.28,24.1h-.07c.09,1.13.13,2.16.13,3.1v6.49H94.11V22.27h1.5l6.23,9.54h.06c0-.14,0-.59-.07-1.35s0-1.31,0-1.64V22.27H103Z"/><path class="cls-1" d="M112.42,33.69h-6.36V22.27h6.36v1.18h-5v3.68h4.74V28.3h-4.74v4.2h5Z"/><path class="cls-1" d="M122.61,33.69l-1.42-3.63h-4.58l-1.4,3.63h-1.35l4.52-11.47h1.12L124,33.69Zm-1.83-4.83-1.33-3.54c-.17-.45-.35-1-.53-1.65a17,17,0,0,1-.49,1.65l-1.35,3.54Z"/><g id="_Group_" data-name="&lt;Group&gt;"><circle id="_Path_" data-name="&lt;Path&gt;" class="cls-1" cx="20" cy="5.22" r="5.22"/><path id="_Path_2" data-name="&lt;Path&gt;" class="cls-1" d="M29.55,20a9.55,9.55,0,0,1-19.1,0,5.23,5.23,0,1,0-5.23,5.22,9.56,9.56,0,0,1,9.56,9.56h0A5.22,5.22,0,0,0,20,40h0a5.22,5.22,0,0,0,5.22-5.22h0a9.56,9.56,0,0,1,9.56-9.56A5.22,5.22,0,1,0,29.55,20Z"/></g></g></g></svg>