<svg id="Capa_1" data-name="Capa 1" xmlns="http://www.w3.org/2000/svg" viewBox="0 0 240 70"><defs><style>.cls-1{fill:#ffffff;}</style></defs><title>logo-</title><path class="cls-1" d="M87.5,30.69V19.27h2.42v9.42h4.63v2Z"/><path class="cls-1" d="M96.46,30.69V19.27h2.42V30.69Z"/><path class="cls-1" d="M108.62,27.52A3,3,0,0,1,107.51,30a4.84,4.84,0,0,1-3.1.89,7.28,7.28,0,0,1-3.23-.69V27.91a13.3,13.3,0,0,0,2,.73,5.8,5.8,0,0,0,1.46.21,2.08,2.08,0,0,0,1.22-.3,1,1,0,0,0,.43-.91,1,1,0,0,0-.19-.6,2.09,2.09,0,0,0-.55-.5,14.26,14.26,0,0,0-1.48-.77,7,7,0,0,1-1.57-.95,3.54,3.54,0,0,1-.84-1.05,3,3,0,0,1-.31-1.41,3,3,0,0,1,1-2.38,4.27,4.27,0,0,1,2.84-.87,6.71,6.71,0,0,1,1.7.21,11.73,11.73,0,0,1,1.69.59l-.78,1.88a11.38,11.38,0,0,0-1.51-.52,4.88,4.88,0,0,0-1.18-.15,1.56,1.56,0,0,0-1.05.32,1.06,1.06,0,0,0-.37.84,1,1,0,0,0,.15.56,1.63,1.63,0,0,0,.47.46,14.61,14.61,0,0,0,1.54.8,6.12,6.12,0,0,1,2.2,1.54A3,3,0,0,1,108.62,27.52Z"/><path class="cls-1" d="M115.5,30.69h-2.42V21.28H110v-2h8.63v2h-3.1Z"/><path class="cls-1" d="M126.55,30.69,125.72,28h-4.16l-.83,2.72h-2.61l4-11.47h3l4,11.47Zm-1.41-4.75q-1.15-3.7-1.29-4.18c-.1-.32-.17-.58-.21-.77q-.26,1-1.48,4.95Z"/><path class="cls-1" d="M137.83,27.52A3,3,0,0,1,136.71,30a4.84,4.84,0,0,1-3.1.89,7.28,7.28,0,0,1-3.23-.69V27.91a13.3,13.3,0,0,0,2,.73,5.8,5.8,0,0,0,1.46.21,2.08,2.08,0,0,0,1.22-.3,1,1,0,0,0,.43-.91,1,1,0,0,0-.19-.6,2.09,2.09,0,0,0-.55-.5,14.26,14.26,0,0,0-1.48-.77,7,7,0,0,1-1.57-.95,3.54,3.54,0,0,1-.84-1.05,3,3,0,0,1-.31-1.41,3,3,0,0,1,1-2.38,4.27,4.27,0,0,1,2.84-.87,6.71,6.71,0,0,1,1.7.21,11.73,11.73,0,0,1,1.69.59L137,21.79a11.38,11.38,0,0,0-1.51-.52,4.88,4.88,0,0,0-1.18-.15,1.56,1.56,0,0,0-1.05.32,1.06,1.06,0,0,0-.37.84,1,1,0,0,0,.15.56,1.63,1.63,0,0,0,.47.46,14.61,14.61,0,0,0,1.54.8,6.12,6.12,0,0,1,2.2,1.54A3,3,0,0,1,137.83,27.52Z"/><path class="cls-1" d="M96.75,42.87a5.77,5.77,0,0,1-1.54,4.32,6.08,6.08,0,0,1-4.42,1.5H87.63V37.27h3.5a5.13,5.13,0,0,1,5.62,5.6Zm-1.41,0a4.6,4.6,0,0,0-1.12-3.37,4.49,4.49,0,0,0-3.33-1.13H89v9.13h1.62a4.92,4.92,0,0,0,3.57-1.17A4.62,4.62,0,0,0,95.35,42.91Z"/><path class="cls-1" d="M105.58,48.69H99.22V37.27h6.37v1.18h-5v3.68h4.73V43.3h-4.73v4.2h5Z"/><path class="cls-1" d="M118.64,48.69h-6.37V37.27h6.37v1.18h-5v3.68h4.73V43.3H113.6v4.2h5Z"/><path class="cls-1" d="M127.68,45.65A2.8,2.8,0,0,1,126.59,48a4.74,4.74,0,0,1-3,.84,7.44,7.44,0,0,1-3.12-.52V47a8.19,8.19,0,0,0,1.53.47,8.07,8.07,0,0,0,1.64.17,3.31,3.31,0,0,0,2-.5,1.65,1.65,0,0,0,.67-1.4,1.8,1.8,0,0,0-.24-1,2.22,2.22,0,0,0-.8-.7,11.05,11.05,0,0,0-1.7-.73A5.43,5.43,0,0,1,121.33,42a3,3,0,0,1-.68-2,2.54,2.54,0,0,1,1-2.1,4.12,4.12,0,0,1,2.63-.78,7.73,7.73,0,0,1,3.13.63L127,38.88a7.08,7.08,0,0,0-2.75-.59,2.66,2.66,0,0,0-1.65.45A1.49,1.49,0,0,0,122,40a1.93,1.93,0,0,0,.22,1,2.05,2.05,0,0,0,.74.7,9.15,9.15,0,0,0,1.59.7A6.29,6.29,0,0,1,127,43.74,2.71,2.71,0,0,1,127.68,45.65Z"/><path class="cls-1" d="M137.08,40.59a3.2,3.2,0,0,1-1.18,2.67,5.36,5.36,0,0,1-3.39.93h-1.34v4.49h-1.33V37.27h3Q137.08,37.27,137.08,40.59Zm-5.91,2.46h1.2a4.45,4.45,0,0,0,2.55-.57,2.1,2.1,0,0,0,.79-1.83A2,2,0,0,0,135,39a3.88,3.88,0,0,0-2.31-.55h-1.48Z"/><path class="cls-1" d="M145.6,48.69h-6.37V37.27h6.37v1.18h-5v3.68h4.73V43.3h-4.73v4.2h5Z"/><path class="cls-1" d="M152.85,38.29a3.73,3.73,0,0,0-3,1.25A5.06,5.06,0,0,0,148.79,43a5.16,5.16,0,0,0,1.05,3.46,3.73,3.73,0,0,0,3,1.22,10.24,10.24,0,0,0,2.73-.43V48.4a8.4,8.4,0,0,1-2.93.45,5,5,0,0,1-3.89-1.53A6.31,6.31,0,0,1,147.37,43a6.87,6.87,0,0,1,.66-3.09,4.74,4.74,0,0,1,1.91-2,5.77,5.77,0,0,1,2.93-.72,7.08,7.08,0,0,1,3.14.66l-.56,1.14A6.05,6.05,0,0,0,152.85,38.29Z"/><path class="cls-1" d="M158,48.69V37.27h1.33V48.69Z"/><path class="cls-1" d="M168.71,48.69h-6.37V37.27h6.37v1.18h-5v3.68h4.73V43.3h-4.73v4.2h5Z"/><path class="cls-1" d="M177.75,45.65A2.8,2.8,0,0,1,176.66,48a4.74,4.74,0,0,1-3,.84,7.44,7.44,0,0,1-3.12-.52V47a8.19,8.19,0,0,0,1.53.47,8.07,8.07,0,0,0,1.64.17,3.31,3.31,0,0,0,2-.5,1.65,1.65,0,0,0,.67-1.4,1.8,1.8,0,0,0-.24-1,2.22,2.22,0,0,0-.8-.7,11.05,11.05,0,0,0-1.7-.73A5.43,5.43,0,0,1,171.4,42a3,3,0,0,1-.68-2,2.54,2.54,0,0,1,1-2.1,4.12,4.12,0,0,1,2.63-.78,7.73,7.73,0,0,1,3.13.63L177,38.88a7.08,7.08,0,0,0-2.75-.59,2.66,2.66,0,0,0-1.65.45,1.49,1.49,0,0,0-.59,1.26,1.93,1.93,0,0,0,.22,1,2.05,2.05,0,0,0,.74.7,9.15,9.15,0,0,0,1.59.7,6.29,6.29,0,0,1,2.47,1.38A2.71,2.71,0,0,1,177.75,45.65Z"/><path class="cls-1" d="M35,44.55a9.55,9.55,0,1,1,0-19.1,5.22,5.22,0,1,0-5.22-5.22,9.55,9.55,0,0,1-9.55,9.55h0a5.22,5.22,0,1,0,0,10.45h0a9.55,9.55,0,0,1,9.55,9.55A5.22,5.22,0,1,0,35,44.55Z"/><g id="_Grupo_" data-name="&lt;Grupo&gt;"><circle id="_Trazado_" data-name="&lt;Trazado&gt;" class="cls-1" cx="49.78" cy="35" r="5.22"/></g></svg>