<svg id="Capa_1" data-name="Capa 1" xmlns="http://www.w3.org/2000/svg" viewBox="0 0 240 70"><defs><style>.cls-1{fill:#ffffff;}</style></defs><title>logo-</title><path class="cls-1" d="M94.88,22.42a3.2,3.2,0,0,1-1.18,2.67,5.36,5.36,0,0,1-3.39.93H89v4.49H87.63V19.09h3Q94.88,19.09,94.88,22.42ZM89,24.88h1.2a4.45,4.45,0,0,0,2.55-.57,2.1,2.1,0,0,0,.79-1.83,2,2,0,0,0-.74-1.69,3.88,3.88,0,0,0-2.31-.55H89Z"/><path class="cls-1" d="M107.17,24.79a6.29,6.29,0,0,1-1.39,4.31,4.88,4.88,0,0,1-3.86,1.57A4.94,4.94,0,0,1,98,29.13a6.34,6.34,0,0,1-1.37-4.36A6.26,6.26,0,0,1,98,20.45a5,5,0,0,1,3.91-1.54,4.86,4.86,0,0,1,3.84,1.56A6.28,6.28,0,0,1,107.17,24.79Zm-9.1,0a5.42,5.42,0,0,0,1,3.52,4,4,0,0,0,5.74,0,5.5,5.5,0,0,0,1-3.52,5.45,5.45,0,0,0-1-3.5,3.46,3.46,0,0,0-2.86-1.19,3.52,3.52,0,0,0-2.89,1.2A5.36,5.36,0,0,0,98.07,24.79Z"/><path class="cls-1" d="M111,25.76v4.75h-1.33V19.09h3.13a4.93,4.93,0,0,1,3.11.8,2.92,2.92,0,0,1,1,2.42,3,3,0,0,1-2.3,3.06l3.1,5.13h-1.57l-2.77-4.75Zm0-1.14h1.82a3.15,3.15,0,0,0,2.06-.56,2.08,2.08,0,0,0,.66-1.68,1.91,1.91,0,0,0-.67-1.63,3.62,3.62,0,0,0-2.14-.5H111Z"/><path class="cls-1" d="M123.17,30.51h-1.33V20.27h-3.62V19.09h8.56v1.18h-3.62Z"/><path class="cls-1" d="M134.75,30.51l-1.42-3.63h-4.58l-1.41,3.63H126L130.51,19h1.12l4.49,11.47Zm-1.84-4.83-1.33-3.54q-.26-.67-.53-1.65a14.65,14.65,0,0,1-.49,1.65l-1.34,3.54Z"/><path class="cls-1" d="M137.86,30.51V19.09h1.33V29.31h5v1.2Z"/><path class="cls-1" d="M96.75,42.69A5.77,5.77,0,0,1,95.22,47a6.08,6.08,0,0,1-4.42,1.5H87.63V37.09h3.5a5.13,5.13,0,0,1,5.62,5.6Zm-1.41,0a4.6,4.6,0,0,0-1.12-3.37,4.49,4.49,0,0,0-3.33-1.13H89v9.13h1.62a4.92,4.92,0,0,0,3.57-1.17A4.62,4.62,0,0,0,95.35,42.74Z"/><path class="cls-1" d="M105.58,48.51H99.22V37.09h6.37v1.18h-5v3.68h4.73v1.17h-4.73v4.2h5Z"/><path class="cls-1" d="M121.62,42.69A5.63,5.63,0,0,1,120,47a6.55,6.55,0,0,1-4.64,1.5h-3.23V37.09h3.59a6,6,0,0,1,4.34,1.48A5.43,5.43,0,0,1,121.62,42.69Zm-2.52.06q0-3.68-3.25-3.68h-1.29v7.44h1Q119.1,46.51,119.1,42.75Z"/><path class="cls-1" d="M130.69,48.51l-.83-2.72H125.7l-.83,2.72h-2.61l4-11.47h3l4,11.47Zm-1.41-4.75q-1.15-3.7-1.29-4.18c-.1-.32-.17-.58-.21-.77q-.26,1-1.48,4.95Z"/><path class="cls-1" d="M138.33,48.51h-2.42V39.11h-3.1v-2h8.63v2h-3.1Z"/><path class="cls-1" d="M153.5,42.79a6.2,6.2,0,0,1-1.41,4.36,6.1,6.1,0,0,1-8.06,0,6.22,6.22,0,0,1-1.41-4.37A6.14,6.14,0,0,1,144,38.41a5.27,5.27,0,0,1,4-1.5,5.2,5.2,0,0,1,4,1.52A6.21,6.21,0,0,1,153.5,42.79Zm-8.34,0a4.77,4.77,0,0,0,.73,2.88,2.54,2.54,0,0,0,2.17,1q2.9,0,2.9-3.85t-2.88-3.86a2.56,2.56,0,0,0-2.18,1A4.75,4.75,0,0,0,145.16,42.79Z"/><path class="cls-1" d="M162.56,45.34a3,3,0,0,1-1.11,2.44,4.84,4.84,0,0,1-3.1.89,7.28,7.28,0,0,1-3.23-.69V45.73a13.3,13.3,0,0,0,2,.73,5.8,5.8,0,0,0,1.46.21,2.08,2.08,0,0,0,1.22-.3,1,1,0,0,0,.43-.91,1,1,0,0,0-.19-.6,2.09,2.09,0,0,0-.55-.5,14.26,14.26,0,0,0-1.48-.77,7,7,0,0,1-1.57-.95,3.54,3.54,0,0,1-.84-1.05,3,3,0,0,1-.31-1.41,3,3,0,0,1,1-2.38,4.27,4.27,0,0,1,2.84-.87,6.71,6.71,0,0,1,1.7.21,11.73,11.73,0,0,1,1.69.59l-.78,1.88a11.38,11.38,0,0,0-1.51-.52,4.88,4.88,0,0,0-1.18-.15,1.56,1.56,0,0,0-1.05.32,1.06,1.06,0,0,0-.37.84,1,1,0,0,0,.15.56,1.63,1.63,0,0,0,.47.46,14.61,14.61,0,0,0,1.54.8,6.12,6.12,0,0,1,2.2,1.54A3,3,0,0,1,162.56,45.34Z"/><path class="cls-1" d="M49.78,29.78h0a9.55,9.55,0,0,1-9.55-9.55A5.22,5.22,0,0,0,35,15h0a5.22,5.22,0,0,0-5.22,5.22,9.55,9.55,0,0,1-9.55,9.55h0a5.22,5.22,0,0,0,0,10.45h0a9.55,9.55,0,0,1,9.55,9.55A5.22,5.22,0,0,0,35,55h0a5.22,5.22,0,0,0,5.22-5.22,9.55,9.55,0,0,1,9.55-9.55h0a5.22,5.22,0,0,0,0-10.45ZM35,44.55A9.55,9.55,0,1,1,44.55,35,9.55,9.55,0,0,1,35,44.55Z"/><circle id="_Elipse_" data-name="&lt;Elipse&gt;" class="cls-1" cx="35" cy="35" r="5.22"/></svg>