<svg id="Capa_1" data-name="Capa 1" xmlns="http://www.w3.org/2000/svg" viewBox="0 0 240 70"><defs><style>.cls-1{fill:#ffffff;}</style></defs><title>logo-catalogo</title><path class="cls-1" d="M91.92,21.31a2.47,2.47,0,0,0-2.12,1,4.78,4.78,0,0,0-.75,2.86q0,3.82,2.87,3.82a9.06,9.06,0,0,0,2.91-.6v2A8.09,8.09,0,0,1,91.7,31a4.79,4.79,0,0,1-3.81-1.51,6.4,6.4,0,0,1-1.32-4.34,7.08,7.08,0,0,1,.65-3.12A4.69,4.69,0,0,1,89.08,20a5.51,5.51,0,0,1,2.85-.71,7.69,7.69,0,0,1,3.34.8l-.78,2a13,13,0,0,0-1.29-.53A3.84,3.84,0,0,0,91.92,21.31Z"/><path class="cls-1" d="M104.65,30.88l-.83-2.72H99.66l-.83,2.72H96.22l4-11.47h3l4,11.47Zm-1.41-4.75Q102.1,22.44,102,22c-.1-.32-.17-.58-.21-.77q-.26,1-1.48,4.95Z"/><path class="cls-1" d="M112.3,30.88h-2.42V21.48h-3.1v-2h8.63v2h-3.1Z"/><path class="cls-1" d="M123.34,30.88l-.83-2.72h-4.16l-.83,2.72h-2.61l4-11.47h3l4,11.47Zm-1.41-4.75q-1.15-3.7-1.29-4.18c-.1-.32-.17-.58-.21-.77q-.26,1-1.48,4.95Zm-2.8-7.59v-.21A22,22,0,0,0,121,16h2.67v.16q-.41.41-1.39,1.21t-1.54,1.19Z"/><path class="cls-1" d="M127.58,30.88V19.46H130v9.42h4.63v2Z"/><path class="cls-1" d="M146.77,25.16a6.2,6.2,0,0,1-1.41,4.36,6.1,6.1,0,0,1-8.06,0,6.22,6.22,0,0,1-1.41-4.37,6.14,6.14,0,0,1,1.41-4.36,5.27,5.27,0,0,1,4-1.5,5.2,5.2,0,0,1,4,1.52A6.21,6.21,0,0,1,146.77,25.16Zm-8.34,0a4.77,4.77,0,0,0,.73,2.88,2.54,2.54,0,0,0,2.17,1q2.9,0,2.9-3.85t-2.88-3.86a2.56,2.56,0,0,0-2.18,1A4.75,4.75,0,0,0,138.43,25.16Z"/><path class="cls-1" d="M153.45,24.47H158v5.92a12.84,12.84,0,0,1-2.07.5,13.47,13.47,0,0,1-2,.14A5,5,0,0,1,150,29.52a6.32,6.32,0,0,1-1.36-4.36,5.75,5.75,0,0,1,1.58-4.31,6,6,0,0,1,4.39-1.55A8.49,8.49,0,0,1,158,20l-.8,1.94a5.74,5.74,0,0,0-2.6-.62A3.21,3.21,0,0,0,152,22.37a4.09,4.09,0,0,0-.95,2.84,4.55,4.55,0,0,0,.76,2.84,2.64,2.64,0,0,0,2.21,1,7.81,7.81,0,0,0,1.54-.16V26.49h-2.16Z"/><path class="cls-1" d="M171,25.16a6.2,6.2,0,0,1-1.41,4.36,6.1,6.1,0,0,1-8.06,0,6.22,6.22,0,0,1-1.41-4.37,6.14,6.14,0,0,1,1.41-4.36,5.27,5.27,0,0,1,4-1.5,5.2,5.2,0,0,1,4,1.52A6.21,6.21,0,0,1,171,25.16Zm-8.34,0a4.77,4.77,0,0,0,.73,2.88,2.54,2.54,0,0,0,2.17,1q2.9,0,2.9-3.85t-2.88-3.86a2.56,2.56,0,0,0-2.18,1A4.75,4.75,0,0,0,162.64,25.16Z"/><path class="cls-1" d="M186.75,25.06a5.77,5.77,0,0,1-1.54,4.32,6.08,6.08,0,0,1-4.42,1.5h-3.16V19.46h3.5a5.6,5.6,0,0,1,4.14,1.48A5.58,5.58,0,0,1,186.75,25.06Zm-1.41,0a4.6,4.6,0,0,0-1.12-3.37,4.49,4.49,0,0,0-3.33-1.13H179v9.13h1.62a4.92,4.92,0,0,0,3.57-1.17A4.62,4.62,0,0,0,185.34,25.11Z"/><path class="cls-1" d="M195.58,30.88h-6.37V19.46h6.37v1.18h-5v3.68h4.73v1.17h-4.73v4.2h5Z"/><path class="cls-1" d="M87.21,48.88V37.46h1.33V47.68h5v1.2Z"/><path class="cls-1" d="M103.47,48.88,102,45.25H97.47l-1.41,3.63H94.72l4.52-11.47h1.12l4.49,11.47Zm-1.84-4.83-1.33-3.54q-.26-.67-.53-1.65a14.65,14.65,0,0,1-.49,1.65l-1.34,3.54Z"/><path class="cls-1" d="M110.57,37.46h3.23a6.09,6.09,0,0,1,3.29.68,2.4,2.4,0,0,1,1,2.15,2.48,2.48,0,0,1-.57,1.68,2.73,2.73,0,0,1-1.65.86v.08q2.6.45,2.6,2.73a2.94,2.94,0,0,1-1,2.39,4.41,4.41,0,0,1-2.89.86h-4Zm1.33,4.89h2.19a3.56,3.56,0,0,0,2-.44,1.7,1.7,0,0,0,.62-1.49A1.51,1.51,0,0,0,116,39a4.29,4.29,0,0,0-2.19-.43h-2Zm0,1.13v4.27h2.38a3.4,3.4,0,0,0,2.08-.54,2,2,0,0,0,.7-1.68,1.77,1.77,0,0,0-.71-1.56,3.82,3.82,0,0,0-2.18-.5Z"/><path class="cls-1" d="M120.92,48.88V37.46h1.33V48.88Z"/><path class="cls-1" d="M135.27,43.16a6.29,6.29,0,0,1-1.39,4.31A4.88,4.88,0,0,1,130,49a4.94,4.94,0,0,1-3.89-1.54,6.34,6.34,0,0,1-1.37-4.36,6.26,6.26,0,0,1,1.38-4.32A5,5,0,0,1,130,37.28a4.86,4.86,0,0,1,3.84,1.56A6.28,6.28,0,0,1,135.27,43.16Zm-9.1,0a5.42,5.42,0,0,0,1,3.52,4,4,0,0,0,5.74,0,5.5,5.5,0,0,0,1-3.52,5.45,5.45,0,0,0-1-3.5A3.46,3.46,0,0,0,130,38.47a3.52,3.52,0,0,0-2.89,1.2A5.36,5.36,0,0,0,126.17,43.16Z"/><path class="cls-1" d="M146.88,43.06a5.77,5.77,0,0,1-1.54,4.32,6.08,6.08,0,0,1-4.42,1.5h-3.16V37.46h3.5a5.13,5.13,0,0,1,5.62,5.6Zm-1.41,0a4.6,4.6,0,0,0-1.12-3.37A4.49,4.49,0,0,0,141,38.61h-1.93v9.13h1.62a4.92,4.92,0,0,0,3.57-1.17A4.62,4.62,0,0,0,145.48,43.11Z"/><path class="cls-1" d="M149.34,48.88V37.46h1.33V48.88Z"/><path class="cls-1" d="M160.5,37.46h1.43l-4.12,11.42H156.5l-4.09-11.42h1.41l2.63,7.39a20.73,20.73,0,0,1,.72,2.48,20.75,20.75,0,0,1,.73-2.52Z"/><path class="cls-1" d="M170,48.88h-6.37V37.46H170v1.18h-5v3.68h4.73v1.17H165v4.2h5Z"/><path class="cls-1" d="M173.67,44.13v4.75h-1.33V37.46h3.13a4.93,4.93,0,0,1,3.11.8,2.92,2.92,0,0,1,1,2.42,3,3,0,0,1-2.3,3.06l3.1,5.13h-1.57l-2.77-4.75Zm0-1.14h1.82a3.15,3.15,0,0,0,2.06-.56,2.08,2.08,0,0,0,.66-1.68,1.91,1.91,0,0,0-.67-1.63,3.62,3.62,0,0,0-2.14-.5h-1.73Z"/><path class="cls-1" d="M189,45.85A2.8,2.8,0,0,1,188,48.2a4.74,4.74,0,0,1-3,.84,7.44,7.44,0,0,1-3.12-.52V47.24a8.19,8.19,0,0,0,1.53.47,8.07,8.07,0,0,0,1.64.17,3.31,3.31,0,0,0,2-.5,1.65,1.65,0,0,0,.67-1.4,1.8,1.8,0,0,0-.24-1,2.22,2.22,0,0,0-.8-.7,11.05,11.05,0,0,0-1.7-.73,5.43,5.43,0,0,1-2.28-1.35,3,3,0,0,1-.68-2,2.54,2.54,0,0,1,1-2.1,4.12,4.12,0,0,1,2.63-.78,7.73,7.73,0,0,1,3.13.63l-.41,1.16a7.08,7.08,0,0,0-2.75-.59,2.66,2.66,0,0,0-1.65.45,1.49,1.49,0,0,0-.59,1.26,1.93,1.93,0,0,0,.22,1,2.05,2.05,0,0,0,.74.7,9.15,9.15,0,0,0,1.59.7,6.29,6.29,0,0,1,2.47,1.38A2.71,2.71,0,0,1,189,45.85Z"/><path class="cls-1" d="M191.23,48.88V37.46h1.33V48.88Z"/><path class="cls-1" d="M204.69,43.06a5.77,5.77,0,0,1-1.54,4.32,6.08,6.08,0,0,1-4.42,1.5h-3.16V37.46h3.5a5.13,5.13,0,0,1,5.62,5.6Zm-1.41,0a4.6,4.6,0,0,0-1.12-3.37,4.49,4.49,0,0,0-3.33-1.13h-1.93v9.13h1.62a4.92,4.92,0,0,0,3.57-1.17A4.62,4.62,0,0,0,203.29,43.11Z"/><path class="cls-1" d="M214.11,48.88l-1.42-3.63h-4.58l-1.41,3.63h-1.34l4.52-11.47H211l4.49,11.47Zm-1.84-4.83-1.33-3.54q-.26-.67-.53-1.65a14.65,14.65,0,0,1-.49,1.65l-1.34,3.54Z"/><path class="cls-1" d="M226.34,43.06a5.77,5.77,0,0,1-1.54,4.32,6.08,6.08,0,0,1-4.42,1.5h-3.16V37.46h3.5a5.13,5.13,0,0,1,5.62,5.6Zm-1.41,0a4.6,4.6,0,0,0-1.12-3.37,4.49,4.49,0,0,0-3.33-1.13h-1.93v9.13h1.62a4.92,4.92,0,0,0,3.57-1.17A4.62,4.62,0,0,0,224.94,43.11Z"/><path class="cls-1" d="M49.35,29.38h0a9.55,9.55,0,0,1-9.55-9.55,5.22,5.22,0,0,0-5.22-5.22h0a5.22,5.22,0,0,0-5.22,5.22,9.55,9.55,0,0,1-9.55,9.55h0a5.22,5.22,0,0,0,0,10.45h0a9.55,9.55,0,0,1,9.55,9.55,5.22,5.22,0,0,0,5.22,5.22h0a5.22,5.22,0,0,0,5.22-5.22,9.55,9.55,0,0,1,9.55-9.55h0a5.22,5.22,0,0,0,0-10.45ZM34.57,44.16a9.55,9.55,0,1,1,9.55-9.55A9.55,9.55,0,0,1,34.57,44.16Z"/><circle id="_Elipse_" data-name="&lt;Elipse&gt;" class="cls-1" cx="49.35" cy="19.83" r="5.22"/></svg>