<svg xmlns="http://www.w3.org/2000/svg" viewBox="0 0 146.69 40"><defs><style>.cls-1{fill:#fff;}</style></defs><title>logo-listas</title><g id="Layer_2" data-name="Layer 2"><g id="Lineamientos"><path class="cls-1" d="M56.44,15.69V4.27h2.42v9.42h4.63v2Z"/><path class="cls-1" d="M65.39,15.69V4.27h2.43V15.69Z"/><path class="cls-1" d="M77.56,12.52A2.94,2.94,0,0,1,76.45,15a4.83,4.83,0,0,1-3.1.89,7.42,7.42,0,0,1-3.24-.68V12.91a13.71,13.71,0,0,0,2,.72,5.78,5.78,0,0,0,1.47.21,2.11,2.11,0,0,0,1.22-.3,1.05,1.05,0,0,0,.42-.91A1,1,0,0,0,75,12a2.1,2.1,0,0,0-.55-.51A14.57,14.57,0,0,0,73,10.76a7.38,7.38,0,0,1-1.57-.95,3.67,3.67,0,0,1-.83-1.05,3,3,0,0,1-.31-1.41,3,3,0,0,1,1-2.38,4.28,4.28,0,0,1,2.84-.87,6.71,6.71,0,0,1,1.7.21,10.76,10.76,0,0,1,1.69.6l-.78,1.88a10.13,10.13,0,0,0-1.51-.52A4.82,4.82,0,0,0,74,6.12,1.54,1.54,0,0,0,73,6.44a1.06,1.06,0,0,0-.37.83,1,1,0,0,0,.15.56,1.59,1.59,0,0,0,.47.46,13.71,13.71,0,0,0,1.54.8A6,6,0,0,1,77,10.63,3,3,0,0,1,77.56,12.52Z"/><path class="cls-1" d="M84.44,15.69H82V6.28h-3.1v-2h8.62v2h-3.1Z"/><path class="cls-1" d="M95.48,15.69,94.65,13H90.49l-.83,2.72H87.05l4-11.47h3l4,11.47Zm-1.4-4.75-1.3-4.18c-.09-.33-.16-.58-.2-.77q-.27,1-1.48,4.95Z"/><path class="cls-1" d="M106.76,12.52A2.94,2.94,0,0,1,105.65,15a4.81,4.81,0,0,1-3.1.89,7.34,7.34,0,0,1-3.23-.68V12.91a13.65,13.65,0,0,0,2,.72,5.91,5.91,0,0,0,1.47.21,2.09,2.09,0,0,0,1.22-.3,1.06,1.06,0,0,0,.43-.91,1,1,0,0,0-.19-.59,2.1,2.1,0,0,0-.55-.51,14.07,14.07,0,0,0-1.48-.77,7.13,7.13,0,0,1-1.57-.95,3.54,3.54,0,0,1-.84-1.05,3,3,0,0,1-.31-1.41,2.94,2.94,0,0,1,1-2.38,4.25,4.25,0,0,1,2.84-.87,6.63,6.63,0,0,1,1.69.21,11.23,11.23,0,0,1,1.7.6l-.79,1.88a9.76,9.76,0,0,0-1.51-.52,4.82,4.82,0,0,0-1.17-.15,1.54,1.54,0,0,0-1.06.32,1.05,1.05,0,0,0-.36.83,1.11,1.11,0,0,0,.14.56,1.52,1.52,0,0,0,.48.46,12.38,12.38,0,0,0,1.53.8,6.18,6.18,0,0,1,2.2,1.54A3,3,0,0,1,106.76,12.52Z"/><path class="cls-1" d="M65.69,27.87a5.75,5.75,0,0,1-1.54,4.32,6.05,6.05,0,0,1-4.42,1.5H56.57V22.27h3.5a5.6,5.6,0,0,1,4.14,1.47A5.57,5.57,0,0,1,65.69,27.87Zm-1.41,0a4.56,4.56,0,0,0-1.12-3.36,4.48,4.48,0,0,0-3.33-1.14H57.9v9.13h1.62a4.92,4.92,0,0,0,3.57-1.17A4.65,4.65,0,0,0,64.28,27.91Z"/><path class="cls-1" d="M74.52,33.69H68.15V22.27h6.37v1.18h-5v3.68h4.73V28.3H69.48v4.2h5Z"/><path class="cls-1" d="M87.57,33.69H81.21V22.27h6.36v1.18h-5v3.68h4.73V28.3H82.54v4.2h5Z"/><path class="cls-1" d="M96.62,30.65A2.8,2.8,0,0,1,95.53,33a4.76,4.76,0,0,1-3,.84,7.44,7.44,0,0,1-3.13-.52V32a8.56,8.56,0,0,0,1.53.47,8.46,8.46,0,0,0,1.64.17,3.33,3.33,0,0,0,2-.5,1.67,1.67,0,0,0,.68-1.41,1.79,1.79,0,0,0-.24-1,2.25,2.25,0,0,0-.8-.7,11.47,11.47,0,0,0-1.7-.72A5.6,5.6,0,0,1,90.26,27a3,3,0,0,1-.68-2,2.53,2.53,0,0,1,1-2.1,4.14,4.14,0,0,1,2.63-.78,7.68,7.68,0,0,1,3.13.63l-.41,1.15a7.21,7.21,0,0,0-2.75-.59,2.65,2.65,0,0,0-1.65.45,1.48,1.48,0,0,0-.6,1.26,2,2,0,0,0,.22,1,2.09,2.09,0,0,0,.74.7,9.92,9.92,0,0,0,1.59.7,6.17,6.17,0,0,1,2.47,1.37A2.72,2.72,0,0,1,96.62,30.65Z"/><path class="cls-1" d="M106,25.59a3.22,3.22,0,0,1-1.18,2.67,5.39,5.39,0,0,1-3.39.94H100.1v4.49H98.78V22.27h3Q106,22.27,106,25.59Zm-5.92,2.47h1.2a4.4,4.4,0,0,0,2.55-.58,2.09,2.09,0,0,0,.79-1.82A2,2,0,0,0,103.9,24a3.85,3.85,0,0,0-2.31-.56H100.1Z"/><path class="cls-1" d="M114.53,33.69h-6.36V22.27h6.36v1.18h-5v3.68h4.74V28.3h-4.74v4.2h5Z"/><path class="cls-1" d="M121.79,23.29a3.73,3.73,0,0,0-3,1.25A5.05,5.05,0,0,0,117.73,28a5.15,5.15,0,0,0,1,3.46,3.71,3.71,0,0,0,3,1.22,10.09,10.09,0,0,0,2.73-.43V33.4a8.33,8.33,0,0,1-2.93.44,5,5,0,0,1-3.89-1.53A6.27,6.27,0,0,1,116.3,28a6.83,6.83,0,0,1,.66-3.09,4.8,4.8,0,0,1,1.91-2.05,5.76,5.76,0,0,1,2.93-.72,7.09,7.09,0,0,1,3.15.66l-.57,1.14A6,6,0,0,0,121.79,23.29Z"/><path class="cls-1" d="M126.93,33.69V22.27h1.32V33.69Z"/><path class="cls-1" d="M137.64,33.69h-6.37V22.27h6.37v1.18h-5v3.68h4.74V28.3H132.6v4.2h5Z"/><path class="cls-1" d="M146.69,30.65a2.8,2.8,0,0,1-1.1,2.35,4.76,4.76,0,0,1-3,.84,7.42,7.42,0,0,1-3.12-.52V32a8.56,8.56,0,0,0,1.53.47,8.38,8.38,0,0,0,1.64.17,3.35,3.35,0,0,0,2-.5,1.66,1.66,0,0,0,.67-1.41,1.79,1.79,0,0,0-.24-1,2.13,2.13,0,0,0-.79-.7,11.47,11.47,0,0,0-1.7-.72A5.6,5.6,0,0,1,140.33,27a3,3,0,0,1-.68-2,2.53,2.53,0,0,1,1-2.1,4.13,4.13,0,0,1,2.62-.78,7.73,7.73,0,0,1,3.14.63L146,23.88a7.17,7.17,0,0,0-2.75-.59,2.64,2.64,0,0,0-1.64.45A1.48,1.48,0,0,0,141,25a1.86,1.86,0,0,0,.22,1,2,2,0,0,0,.74.7,9.52,9.52,0,0,0,1.59.7A6.17,6.17,0,0,1,146,28.74,2.72,2.72,0,0,1,146.69,30.65Z"/><path class="cls-1" d="M20,29.55a9.55,9.55,0,0,1,0-19.1,5.23,5.23,0,1,0-5.22-5.23,9.56,9.56,0,0,1-9.56,9.56h0a5.22,5.22,0,0,0,0,10.44h0a9.56,9.56,0,0,1,9.56,9.56A5.22,5.22,0,1,0,20,29.55Z"/><g id="_Group_" data-name="&lt;Group&gt;"><circle id="_Path_" data-name="&lt;Path&gt;" class="cls-1" cx="34.78" cy="20" r="5.22"/></g></g></g></svg>