<svg xmlns="http://www.w3.org/2000/svg" viewBox="0 0 656.19 1141.66"><defs><style>.cls-1{opacity:0.1;}.cls-2{fill:#465252;}</style></defs><title>Asset 5</title><g id="Layer_2" data-name="Layer 2"><g id="textura"><g class="cls-1"><path class="cls-2" d="M460.91,571a60.2,60.2,0,1,0-120.39,0,110.07,110.07,0,0,1-220.13,0,60.2,60.2,0,1,0-60.19,60.2A110.07,110.07,0,0,1,170.26,741.22h0a60.2,60.2,0,0,0,120.39,0h0A110.07,110.07,0,0,1,400.71,631.16,60.2,60.2,0,0,0,460.91,571Z"/><path class="cls-2" d="M575.71,510.73c-1.54-.11-3.08-.19-4.64-.19h0A110.07,110.07,0,0,1,461,400.48a60.2,60.2,0,1,0-60.2,60.19,110.06,110.06,0,0,1,1.06,220.11l-1.05,0A60.19,60.19,0,0,0,340.61,741v0a60.2,60.2,0,0,0,60.2,60.2l1.05,0a110.06,110.06,0,0,1-1.05,220.11,60.2,60.2,0,1,0,60.2,60.2,110.06,110.06,0,0,1,110-110.06h0a60.2,60.2,0,0,0,0-120.39h0A110.08,110.08,0,0,1,461,741.06s0,0,0-.07A110.07,110.07,0,0,1,566.43,631c1.53.12,3.07.2,4.64.2A60.19,60.19,0,0,0,631.26,571a109.6,109.6,0,0,1,24.93-69.76V470.54A109.79,109.79,0,0,1,575.71,510.73Z"/><path class="cls-2" d="M571.07,680.76a60.2,60.2,0,1,0,0,120.39,109.84,109.84,0,0,1,85.13,40.3V810.72A109.62,109.62,0,0,1,631.26,741,60.19,60.19,0,0,0,571.07,680.76Z"/><path class="cls-2" d="M571.07,1021.27a60.2,60.2,0,1,0,60.19,60.2,109.65,109.65,0,0,1,24.93-69.76V981A109.8,109.8,0,0,1,571.07,1021.27Z"/><circle class="cls-2" cx="398.74" cy="230.45" r="60.2"/><path class="cls-2" d="M631.55,60.2a60.2,60.2,0,1,0-60.2,60.19,109.81,109.81,0,0,1,84.84,40V129.6A109.63,109.63,0,0,1,631.55,60.2Z"/><path class="cls-2" d="M571.36,340.52a60.2,60.2,0,1,0,60.2,60.19,109.57,109.57,0,0,1,24.63-69.39V300.57A109.81,109.81,0,0,1,571.36,340.52Z"/></g></g></g></svg>