<svg xmlns="http://www.w3.org/2000/svg" viewBox="0 0 30.41 30.41"><defs><style>.cls-1{fill:#231f20;}</style></defs><title>portal-logo</title><g id="Layer_2" data-name="Layer 2"><g id="logos"><path class="cls-1" d="M26.44,11.23h0A7.26,7.26,0,0,1,19.18,4a4,4,0,0,0-4-4h0a4,4,0,0,0-4,4A7.26,7.26,0,0,1,4,11.23H4a4,4,0,0,0,0,8H4a7.26,7.26,0,0,1,7.26,7.26,4,4,0,0,0,4,4h0a4,4,0,0,0,4-4,7.26,7.26,0,0,1,7.26-7.26h0a4,4,0,0,0,0-7.95ZM15.2,22.47a7.27,7.27,0,1,1,7.27-7.27A7.26,7.26,0,0,1,15.2,22.47Z"/><circle id="_Ellipse_" data-name="&lt;Ellipse&gt;" class="cls-1" cx="15.2" cy="15.2" r="3.97"/></g></g></svg>