<svg xmlns="http://www.w3.org/2000/svg" viewBox="0 0 68.29 68.29"><defs><style>.cls-1{fill:#fff;}</style></defs><title>ico-catalogo</title><g id="Layer_2" data-name="Layer 2"><g id="logos"><path class="cls-1" d="M59.37,25.23h0A16.31,16.31,0,0,1,43.07,8.92,8.92,8.92,0,0,0,34.15,0h0a8.92,8.92,0,0,0-8.92,8.92A16.31,16.31,0,0,1,8.92,25.23h0a8.92,8.92,0,0,0,0,17.84h0a16.31,16.31,0,0,1,16.31,16.3,8.92,8.92,0,0,0,8.92,8.92h0a8.92,8.92,0,0,0,8.92-8.92,16.3,16.3,0,0,1,16.3-16.3h0a8.92,8.92,0,1,0,0-17.84ZM34.15,50.45a16.31,16.31,0,1,1,16.3-16.3A16.31,16.31,0,0,1,34.15,50.45Z"/><circle id="_Ellipse_" data-name="&lt;Ellipse&gt;" class="cls-1" cx="59.37" cy="8.92" r="8.92"/></g></g></svg>