<svg xmlns="http://www.w3.org/2000/svg" viewBox="0 0 415.61 111.26"><defs><style>.cls-1{font-size:44.51px;font-family:OpenSans-Light, Open Sans;letter-spacing:-0.01em;}.cls-1,.cls-20{fill:#fff;}.cls-2{letter-spacing:-0.02em;}.cls-3{letter-spacing:-0.01em;}.cls-4{letter-spacing:-0.02em;}.cls-5{letter-spacing:0em;}.cls-6{letter-spacing:-0.02em;}.cls-7{letter-spacing:-0.02em;}.cls-8{letter-spacing:0em;}.cls-9{letter-spacing:-0.02em;}.cls-10{letter-spacing:-0.02em;}.cls-11{letter-spacing:-0.01em;}.cls-12,.cls-19{letter-spacing:0em;}.cls-13,.cls-14,.cls-15,.cls-16,.cls-17,.cls-18,.cls-19{font-family:OpenSans-Bold, Open Sans;font-weight:700;}.cls-13{letter-spacing:0em;}.cls-14{letter-spacing:-0.02em;}.cls-15{letter-spacing:-0.02em;}.cls-16{letter-spacing:-0.01em;}.cls-17{letter-spacing:-0.02em;}.cls-18{letter-spacing:-0.01em;}</style></defs><title>logo-cifras</title><g id="Layer_2" data-name="Layer 2"><g id="Lineamientos"><text class="cls-1" transform="translate(152.99 43.15)">B<tspan class="cls-2" x="27.43" y="0">i</tspan><tspan class="cls-3" x="36.71" y="0">o</tspan><tspan class="cls-4" x="62.36" y="0">d</tspan><tspan class="cls-5" x="87.94" y="0">i</tspan><tspan class="cls-6" x="98.12" y="0">v</tspan><tspan class="cls-7" x="117.83" y="0">e</tspan><tspan class="cls-8" x="141.4" y="0">r</tspan><tspan class="cls-9" x="158.66" y="0">s</tspan><tspan class="cls-2" x="178.39" y="0">i</tspan><tspan class="cls-10" x="187.67" y="0">d</tspan><tspan class="cls-11" x="213.15" y="0">a</tspan><tspan class="cls-12" x="236.13" y="0">d</tspan><tspan class="cls-7"><tspan x="0" y="50.07">e</tspan><tspan class="cls-12" x="23.57" y="50.07">n</tspan><tspan class="cls-13" x="49.82" y="50.07"> </tspan><tspan class="cls-14" x="61.38" y="50.07">c</tspan><tspan class="cls-15" x="83.58" y="50.07">i</tspan><tspan class="cls-16" x="96.48" y="50.07">f</tspan><tspan class="cls-17" x="113.32" y="50.07">r</tspan><tspan class="cls-18" x="132.42" y="50.07">a</tspan><tspan class="cls-19" x="158.96" y="50.07">s</tspan></tspan></text><path class="cls-20" d="M96.73,29.06a26.57,26.57,0,0,0,0,53.14A14.53,14.53,0,1,1,82.2,96.73,26.57,26.57,0,0,0,55.63,70.16h0A14.53,14.53,0,0,1,41.1,55.63h0A14.54,14.54,0,0,1,55.63,41.1h0A26.57,26.57,0,0,0,82.2,14.53,14.53,14.53,0,1,1,96.73,29.06Z"/><path class="cls-20" d="M55.63,29.06a26.57,26.57,0,0,0,0,53.14A14.53,14.53,0,1,1,41.1,96.73,26.57,26.57,0,0,0,14.53,70.16h0A14.53,14.53,0,0,1,0,55.63H0A14.54,14.54,0,0,1,14.53,41.1h0A26.57,26.57,0,0,0,41.1,14.53,14.53,14.53,0,1,1,55.63,29.06Z"/></g></g></svg>